<?xml version="1.0" encoding="UTF-8"?>
<svg version="1.1" xmlns="http://www.w3.org/2000/svg" width="2000" height="1938">
<path d="M0 0 C0.691072 55.69394246 1.209243 111.38638109 1.5223387 167.08369862 C1.5801147 177.34211288 1.64088009 187.60050907 1.70164335 197.858906 C1.81360567 216.77450487 1.92336034 235.69011589 2.03170967 254.60573578 C2.1386677 273.2779477 2.24660348 291.95015356 2.35578728 310.6223526 C2.36265027 311.79618017 2.36951327 312.97000774 2.37658423 314.17940584 C2.4044601 318.94670832 2.4323428 323.71401076 2.46023449 328.48131314 C2.71275953 371.64378033 2.96296446 414.80626064 3.21166992 457.96875 C3.44577383 498.59701446 3.68138073 539.22526983 3.91870117 579.85351562 C3.92603993 581.1099393 3.93337868 582.36636297 3.94093982 583.66086009 C3.97053077 588.72692807 4.00012282 593.79299604 4.0297149 598.85906402 C4.04446572 601.3843669 4.05921639 603.90966978 4.0739669 606.43497267 C4.0886841 608.95456476 4.10340171 611.47415684 4.11811974 613.99374892 C4.35269073 654.15221817 4.5859637 694.31069497 4.81901504 734.46917306 C4.88700159 746.18328353 4.95506147 757.89739356 5.0232861 769.61150265 C5.16639093 794.18370566 5.30911948 818.7559107 5.45036215 843.32812449 C5.5086972 853.4747424 5.56726973 863.62135878 5.62658119 873.76797104 C5.67580175 882.18835457 5.72447186 890.60874106 5.77242192 899.02913192 C5.7965144 903.25728478 5.82084394 907.48543585 5.84590466 911.71358308 C5.96086975 931.14273147 6.02558774 950.5704295 6 970 C-0.6 970 -7.2 970 -14 970 C-14.55357967 901.57849031 -15.06319325 833.15685742 -15.48071289 764.734375 C-15.48563399 763.92821024 -15.49055509 763.12204548 -15.49562531 762.29145148 C-15.64104852 738.45709114 -15.78337063 714.62271249 -15.92488909 690.78832868 C-15.97876413 681.71689867 -16.03289877 672.64547021 -16.08704412 663.57404181 C-16.27456127 632.15489154 -16.46152188 600.73573802 -16.6467371 569.3165741 C-16.65818678 567.37455672 -16.6696366 565.43253934 -16.68108657 563.49052197 C-16.68676043 562.52816136 -16.6924343 561.56580076 -16.6982801 560.57427771 C-16.72699269 555.70430362 -16.75570732 550.83432954 -16.78442383 545.96435547 C-16.79012031 544.99819788 -16.7958168 544.03204029 -16.8016859 543.03660519 C-16.98621433 511.74323818 -17.173983 480.44989177 -17.36365847 449.15655556 C-17.56711991 415.58658121 -17.76746239 382.01658953 -17.96453851 348.44657707 C-17.98641801 344.72150542 -18.00830971 340.99643383 -18.03021049 337.2713623 C-18.0355966 336.35501995 -18.0409827 335.43867759 -18.04653201 334.49456729 C-18.12059563 321.90418767 -18.19640368 309.31381972 -18.2737116 296.72345962 C-18.40351049 275.58259414 -18.52961327 254.44171009 -18.64868164 233.30078125 C-18.65322209 232.49586854 -18.65776254 231.69095584 -18.66244058 230.86165184 C-19.05985002 160.24103578 -19.09671694 89.62152996 -19 19 C-19.73303368 19.00445879 -20.46606736 19.00891757 -21.22131418 19.01351148 C-118.84273651 19.60606391 -216.46414366 20.08566699 -314.08691406 20.38891602 C-315.88734457 20.39451455 -315.88734457 20.39451455 -317.7241474 20.40022618 C-349.3529495 20.49846019 -380.98176454 20.59217772 -412.61058535 20.68416781 C-430.81896326 20.73713856 -449.02733867 20.79089187 -467.23571253 20.84523445 C-470.70034938 20.85557428 -474.16498624 20.86590822 -477.6296231 20.87624324 C-479.02151811 20.88039547 -480.41341313 20.88454773 -481.80530814 20.88870003 C-482.49555007 20.89075915 -483.185792 20.89281827 -483.89695035 20.89493979 C-485.29392991 20.89910741 -486.69090947 20.90327529 -488.08788902 20.90744342 C-527.41050875 21.02476833 -566.73313098 21.14121998 -606.05575943 21.25558567 C-607.13403522 21.25872202 -607.13403522 21.25872202 -608.23409435 21.26192172 C-616.23876003 21.28520397 -624.24342575 21.30847273 -632.24809149 21.33173657 C-633.33085935 21.33488344 -633.33085935 21.33488344 -634.43550131 21.33809388 C-640.37421076 21.35535355 -640.37421076 21.35535355 -643.19231109 21.3635428 C-689.21545562 21.49728582 -735.23859051 21.63396268 -781.26171875 21.77319336 C-792.85805377 21.80827371 -804.45438881 21.84334421 -816.05072403 21.87835789 C-816.76617684 21.88051817 -817.48162964 21.88267845 -818.21876284 21.8849042 C-840.51677927 21.95221989 -862.81479815 22.01867286 -885.11281967 22.08428097 C-885.8199479 22.08636165 -886.52707613 22.08844233 -887.25563249 22.09058606 C-902.82951278 22.13640267 -918.40339366 22.18201329 -933.97727509 22.22743921 C-939.55864989 22.24372038 -945.14002465 22.26001471 -950.72139939 22.27631469 C-952.10815809 22.28036437 -953.4949168 22.28441323 -954.88167551 22.28846128 C-974.37047028 22.34535534 -993.8592605 22.40357187 -1013.34804751 22.46307522 C-1044.97192916 22.55960501 -1076.59581874 22.6529089 -1108.21972656 22.74047852 C-1109.42959137 22.74383447 -1110.63945618 22.74719043 -1111.88598356 22.75064808 C-1210.67669869 23.02394629 -1309.46673718 23.06293274 -1453 23 C-1452.97069916 23.92031053 -1452.94139832 24.84062106 -1452.91120958 25.78881979 C-1452.80143147 29.24493745 -1452.69213859 32.70106978 -1452.58316088 36.15721273 C-1452.53614399 37.64525524 -1452.48894082 39.13329188 -1452.44153833 40.62132215 C-1452.10685649 51.13264396 -1451.8296631 61.63964162 -1451.71875 72.15625 C-1451.70072154 73.65865314 -1451.68248259 75.16105376 -1451.6640625 76.66345215 C-1451.61514631 80.74125831 -1451.57072168 84.81910069 -1451.52767944 88.89697266 C-1451.49914492 91.58041289 -1451.46953488 94.26383958 -1451.43969727 96.94726562 C-1450.88155513 147.38982182 -1450.5232928 197.83434681 -1450.19203186 248.27882385 C-1450.17117873 251.45036842 -1450.15029842 254.6219128 -1450.12939453 257.79345703 C-1450.12418679 258.584218 -1450.11897904 259.37497897 -1450.11361349 260.18970239 C-1450.04604415 270.42186112 -1449.97418924 280.65397742 -1449.89668363 290.88606578 C-1449.18925148 384.3842994 -1448.89726611 477.88234429 -1448.88318762 585.38033834 C-1448.88289621 589.399214 -1448.88243102 593.41808962 -1448.88192479 597.43696526 C-1448.86908511 702.09360406 -1449.0478808 806.74952195 -1450.24659709 1218.64382676 C-1450.38228213 1261.63485505 -1450.51411632 1304.62589361 -1450.64282227 1347.61694336 C-1450.6470637 1349.03350125 -1450.65130522 1350.45005915 -1450.65554682 1351.86661704 C-1450.66190419 1353.98977755 -1450.66826154 1356.11293806 -1450.67461869 1358.23609856 C-1450.69787531 1366.0032551 -1450.72113995 1373.77041161 -1450.74441433 1381.53756809 C-1450.74650416 1382.23508981 -1450.748594 1382.93261152 -1450.75074716 1383.65127026 C-1450.8646963 1421.6810443 -1450.98129445 1459.71081018 -1451.09881264 1497.74057335 C-1451.10297511 1499.08772513 -1451.10713755 1500.43487692 -1451.11129997 1501.7820287 C-1451.11545221 1503.12583309 -1451.11960447 1504.46963749 -1451.12375676 1505.81344188 C-1451.12683389 1506.80931445 -1451.12683389 1506.80931445 -1451.12997319 1507.82530565 C-1451.14029425 1511.16544351 -1451.15061796 1514.50558135 -1451.16094652 1517.84571919 C-1451.21719683 1536.04167227 -1451.27256714 1554.23762781 -1451.32727366 1572.4335856 C-1451.41846303 1602.74683173 -1451.5123611 1633.06006842 -1451.61108398 1663.37329102 C-1451.61664879 1665.08406611 -1451.61664879 1665.08406611 -1451.62232602 1666.82940232 C-1451.89629337 1750.8876393 -1452.35291325 1834.94381483 -1453 1919 C-1452.26696632 1918.99554121 -1451.53393264 1918.99108243 -1450.77868582 1918.98648852 C-1353.15726349 1918.39393609 -1255.53585634 1917.91433301 -1157.91308594 1917.61108398 C-1156.71279894 1917.60735163 -1155.51251193 1917.60361927 -1154.2758526 1917.59977382 C-1122.6470505 1917.50153981 -1091.01823546 1917.40782228 -1059.38941465 1917.31583219 C-1041.18103674 1917.26286144 -1022.97266133 1917.20910813 -1004.76428747 1917.15476555 C-1001.29965062 1917.14442572 -997.83501376 1917.13409178 -994.3703769 1917.12375676 C-992.97848189 1917.11960453 -991.58658687 1917.11545227 -990.19469186 1917.11129997 C-989.50444993 1917.10924085 -988.814208 1917.10718173 -988.10304965 1917.10506021 C-986.70607009 1917.10089259 -985.30909053 1917.09672471 -983.91211098 1917.09255658 C-944.58949125 1916.97523167 -905.26686902 1916.85878002 -865.94424057 1916.74441433 C-865.22539005 1916.74232343 -864.50653952 1916.74023254 -863.76590565 1916.73807828 C-855.76123997 1916.71479603 -847.75657425 1916.69152727 -839.75190851 1916.66826343 C-839.03006327 1916.66616552 -838.30821803 1916.66406761 -837.56449869 1916.66190612 C-831.6257885 1916.64464645 -831.6257885 1916.64464645 -828.80768891 1916.6364572 C-782.78454438 1916.50271418 -736.76140949 1916.36603732 -690.73828125 1916.22680664 C-679.14194623 1916.19172629 -667.54561119 1916.15665579 -655.94927597 1916.12164211 C-655.23382316 1916.11948183 -654.51837036 1916.11732155 -653.78123716 1916.1150958 C-631.48322073 1916.04778011 -609.18520185 1915.98132714 -586.88718033 1915.91571903 C-586.1800521 1915.91363835 -585.47292387 1915.91155767 -584.74436751 1915.90941394 C-569.17048722 1915.86359733 -553.59660634 1915.81798671 -538.02272491 1915.77256079 C-532.44135011 1915.75627962 -526.85997535 1915.73998529 -521.27860061 1915.72368531 C-519.89184191 1915.71963563 -518.5050832 1915.71558677 -517.11832449 1915.71153872 C-497.62952972 1915.65464466 -478.1407395 1915.59642813 -458.65195249 1915.53692478 C-427.02807084 1915.44039499 -395.40418126 1915.3470911 -363.78027344 1915.25952148 C-362.57040863 1915.25616553 -361.36054382 1915.25280957 -360.11401644 1915.24935192 C-261.32330131 1914.97605371 -162.53326282 1914.93706726 -19 1915 C-19.0438266 1913.89607169 -19.0438266 1913.89607169 -19.08853859 1912.76984179 C-19.22236099 1909.38546708 -19.354773 1906.00103853 -19.48716736 1902.61660767 C-19.53314229 1901.45919351 -19.57911723 1900.30177935 -19.62648535 1899.10929203 C-20.00659035 1889.35131054 -20.21174951 1879.60016547 -20.31640625 1869.8359375 C-20.33722184 1868.11814611 -20.3582657 1866.40035747 -20.3795166 1864.68257141 C-20.43419722 1860.17158526 -20.4840719 1855.6605597 -20.53242874 1851.1495018 C-20.5627865 1848.34856647 -20.59454206 1845.54765007 -20.62667847 1842.74673462 C-20.98725619 1811.16294977 -21.11989554 1779.58581383 -21 1748 C-14.73 1748 -8.46 1748 -2 1748 C-0.89024077 1767.19230664 -0.6731208 1786.37447242 -0.46757126 1805.5931015 C-0.43727734 1808.39559787 -0.40547702 1811.19807373 -0.37332153 1814.00054932 C-0.12979749 1835.40640102 0.03635263 1856.81147074 0.0625 1878.21875 C0.06353729 1879.0672905 0.06457458 1879.91583099 0.06564331 1880.79008484 C0.0777927 1893.07903823 0.05417289 1905.3679355 0.03076172 1917.65686035 C0.02778001 1919.24844995 0.0248045 1920.84003956 0.02183533 1922.43162918 C0.0146283 1926.28775292 0.00733772 1930.1438765 0 1934 C-71.43061271 1934.84177785 -142.86210603 1935.16078189 -214.296875 1935.38891602 C-215.46377003 1935.39264837 -216.63066506 1935.39638073 -217.83292055 1935.40022618 C-249.15439137 1935.50023041 -280.47588174 1935.59337198 -311.79738045 1935.68416781 C-329.95561108 1935.73682358 -348.11383802 1935.79059435 -366.27206278 1935.84523445 C-369.70898341 1935.85557601 -373.14590406 1935.86590888 -376.58282471 1935.87624324 C-377.96364411 1935.88039545 -379.34446351 1935.88454772 -380.72528291 1935.88870003 C-381.4100349 1935.89075915 -382.09478689 1935.89281827 -382.80028895 1935.89493979 C-384.18609906 1935.8991073 -385.57190918 1935.90327517 -386.9577193 1935.90744342 C-426.16410881 1936.02536661 -465.37050204 1936.14197647 -504.5769043 1936.25558567 C-505.29836974 1936.25767657 -506.01983518 1936.25976746 -506.76316321 1936.26192172 C-514.7985996 1936.28520852 -522.83403604 1936.308476 -530.8694725 1936.33173657 C-531.59418952 1936.33383448 -532.31890654 1936.33593239 -533.06558467 1936.33809388 C-539.04868336 1936.35541362 -539.04868336 1936.35541362 -541.85740429 1936.3635428 C-586.18532725 1936.49184245 -630.51323705 1936.62391221 -674.84113677 1936.76000126 C-744.06073982 1936.97250349 -813.28035447 1937.18067278 -882.5 1937.37890625 C-883.53110764 1937.38186006 -883.53110764 1937.38186006 -884.58304574 1937.38487355 C-1076.9023767 1937.93569835 -1076.9023767 1937.93569835 -1472 1938 C-1472.11257158 1848.70466419 -1472.14355796 1759.40908916 -1471.35621244 1394.47677305 C-1471.34374581 1390.41767201 -1471.33130741 1386.3585709 -1471.31887197 1382.29946977 C-1471.10928268 1313.90138489 -1470.89174057 1245.50332615 -1470.67066248 1177.10527754 C-1470.65020667 1170.77640249 -1470.62975686 1164.44752743 -1470.60931396 1158.11865234 C-1470.6070617 1157.4213857 -1470.60480943 1156.72411905 -1470.60248892 1156.00572311 C-1470.49657871 1123.21376383 -1470.39228556 1090.42179947 -1470.28853205 1057.6298333 C-1470.28174089 1055.48349077 -1470.27494852 1053.33714824 -1470.26815595 1051.19080571 C-1470.16754397 1019.39712467 -1470.06738236 987.60344223 -1469.9678856 955.80975768 C-1469.96137805 953.73032698 -1469.95486965 951.65089629 -1469.94836106 949.5714656 C-1469.90971224 937.22325872 -1469.87106892 924.87505182 -1469.83250958 912.52684466 C-1469.73374108 880.89910268 -1469.63358875 849.27136568 -1469.53071368 817.64363674 C-1469.46658518 797.92032552 -1469.40361471 778.19701079 -1469.34149063 758.47369315 C-1469.30593858 747.19986301 -1469.26986359 735.92603521 -1469.23212624 724.65221214 C-1469.07717968 678.27318244 -1468.97439445 631.89454283 -1468.97246728 585.51522809 C-1468.97230895 582.12831057 -1468.97191698 578.74139313 -1468.97150958 575.35447564 C-1468.96834286 536.03085348 -1469.10521911 496.70863498 -1469.33982658 457.38574791 C-1469.38297866 450.06385666 -1469.42481791 442.74195929 -1469.46542549 435.42005348 C-1469.47331849 433.99700196 -1469.47331849 433.99700196 -1469.48137094 432.54520193 C-1469.49208233 430.61292699 -1469.50279059 428.68065204 -1469.51349575 426.74837706 C-1469.60631553 410.01639984 -1469.70207734 393.28444088 -1469.79956055 376.55249023 C-1469.89247384 360.60491367 -1469.98264778 344.65732442 -1470.07006836 328.7097168 C-1470.16726923 310.97833814 -1470.26623461 293.24697069 -1470.36784559 275.51561671 C-1470.37881804 273.60034963 -1470.3897891 271.68508254 -1470.40075874 269.76981544 C-1470.40614625 268.82945712 -1470.41153376 267.88909879 -1470.41708453 266.92024475 C-1470.45358799 260.53085145 -1470.48897871 254.14145264 -1470.5238781 247.7520504 C-1470.58050606 237.41630617 -1470.63984324 227.08058026 -1470.70288086 216.74487305 C-1470.70794399 215.91431936 -1470.71300713 215.08376567 -1470.71822369 214.22804369 C-1470.91407692 182.40723225 -1471.26032475 150.58867585 -1471.66300869 118.76985455 C-1471.9725696 94.17979225 -1472.13483469 69.59434376 -1472.0704509 45.0020802 C-1472.05248578 37.37154354 -1472.04186098 29.74099059 -1472.02952576 22.11044312 C-1472.0266446 20.348972 -1472.02375929 18.58750088 -1472.02086973 16.82602978 C-1472.01386527 12.5506866 -1472.00691697 8.27534332 -1472 4 C-1400.60526762 3.15915972 -1329.20967274 2.8393751 -1257.81079102 2.61108398 C-1256.06252879 2.60548545 -1256.06252879 2.60548545 -1254.27894813 2.59977382 C-1222.99528944 2.4997714 -1191.71161119 2.40662827 -1160.42792458 2.31583219 C-1142.29085977 2.26317428 -1124.15379865 2.2094036 -1106.01673971 2.15476555 C-1102.5836868 2.14442397 -1099.15063386 2.1340911 -1095.71758093 2.12375676 C-1094.33831061 2.11960454 -1092.95904028 2.11545228 -1091.57976996 2.11129997 C-1090.55379279 2.10821129 -1090.55379279 2.10821129 -1089.5070888 2.10506021 C-1088.12282914 2.1008927 -1086.73856949 2.09672482 -1085.35430983 2.09255658 C-1046.19156516 1.9746329 -1007.02881675 1.85802351 -967.8660593 1.74441433 C-967.1453975 1.74232343 -966.4247357 1.74023254 -965.68223565 1.73807828 C-957.65577635 1.71479154 -949.62931698 1.69152406 -941.6028576 1.66826343 C-940.51699983 1.66511656 -940.51699983 1.66511656 -939.40920554 1.66190612 C-933.42745244 1.64457085 -933.42745244 1.64457085 -930.62723615 1.6364572 C-886.35203732 1.50816649 -842.07685171 1.37609643 -797.8016762 1.23999874 C-728.660771 1.02747195 -659.51985413 0.81930131 -590.37890625 0.62109375 C-589.69219583 0.61912454 -589.00548541 0.61715533 -588.29796558 0.61512645 C-396.11799291 0.06414316 -396.11799291 0.06414316 0 0 Z " fill="#510E0E" transform="translate(1472,0)"/>
<path d="M0 0 C346.83 0 693.66 0 1051 0 C1051 228.03 1051 456.06 1051 691 C1046.38 691 1041.76 691 1037 691 C1037 467.59 1037 244.18 1037 14 C875.96 14 714.92 14 549 14 C549.33 80 549.66 146 550 214 C550.38472491 297.21457217 550.38472491 297.21457217 550.53242874 335.27899933 C550.55022887 339.85673541 550.56813457 344.43447104 550.58623637 349.01220594 C550.8770512 422.56587683 551.05103327 496.11895204 551 744 C548.69 744 546.38 744 544 744 C543.32762423 661.21506689 542.80569063 578.43149758 542.50937554 495.64423673 C542.47421073 485.82946324 542.43783897 476.01469471 542.40075874 466.19992828 C542.39805479 465.48395383 542.39535084 464.76797938 542.39256494 464.03030874 C542.38156918 461.11940485 542.37056733 458.20850097 542.35955721 455.29759713 C542.25809362 428.47053435 542.15924104 401.64346261 542.06186594 374.81638471 C541.97624267 351.23044742 541.88874544 327.64451784 541.79956055 304.05859375 C541.79379158 302.53274921 541.78802262 301.00690466 541.78225368 299.48106012 C541.77940078 298.72651587 541.77654788 297.97197162 541.77360853 297.1945624 C541.75923319 293.3924074 541.74486046 289.5902524 541.73049068 285.78809738 C541.72765234 285.03716153 541.72481399 284.28622569 541.72188963 283.51253421 C541.64610634 263.45752034 541.5715509 243.40250191 541.49739558 223.34748197 C541.49474832 222.63156208 541.49210106 221.91564219 541.48937359 221.17802776 C541.47874233 218.30273478 541.46811126 215.4274418 541.4574867 212.5521488 C541.42119624 202.73223333 541.38451729 192.9123194 541.34756117 183.09240641 C540.92284316 70.1871559 540.92284316 70.1871559 541 14 C529.45 14 517.9 14 506 14 C506.06597885 17.25790405 506.1319577 20.51580811 506.19993591 23.87243652 C507.21039182 76.87156371 507.30413073 129.8777991 507.49062446 182.88480166 C507.5253245 192.73419638 507.56173965 202.58358369 507.59924126 212.43296814 C507.60194521 213.14359563 507.60464916 213.85422313 507.60743506 214.58638478 C507.61842862 217.4748942 507.62943007 220.36340358 507.64044279 223.25191293 C507.74316064 250.19789903 507.84170428 277.14389888 507.93813406 304.08990815 C508.02252243 327.66509403 508.11005535 351.24026604 508.20043945 374.81542969 C508.22347067 380.82640071 508.24649043 386.83737177 508.26949501 392.8483429 C508.27233291 393.58984145 508.27517082 394.33134001 508.27809472 395.09530822 C508.97360352 576.89350037 508.97360352 576.89350037 509 744 C506.69 744 504.38 744 502 744 C500.89814001 739.55472799 500.84910481 735.20286949 500.84571743 730.65225029 C500.84118684 729.81006433 500.83665625 728.96787837 500.83198836 728.10017163 C500.81793598 725.26346674 500.81090702 722.42678759 500.80381775 719.59005737 C500.79512168 717.53857118 500.78599694 715.48708676 500.77647978 713.43560421 C500.75150691 707.78054764 500.73268752 702.1254845 500.7148484 696.47040153 C500.69453158 690.36580245 500.66857213 684.26122705 500.64332581 678.15664673 C500.59736829 666.83491415 500.5558953 655.51317147 500.51664528 644.19141424 C500.47995629 633.61498904 500.44129532 623.03857317 500.40075874 612.46216202 C500.39805479 611.75604125 500.39535084 611.04992047 500.39256494 610.3224021 C500.38157326 607.45276803 500.37057215 604.583134 500.35955721 601.71350002 C500.25576672 574.66727848 500.15751939 547.62103929 500.06186594 520.57478788 C499.97849192 497.00866382 499.891045 473.4425588 499.79956055 449.87646484 C499.77651926 443.93991541 499.75348277 438.00336596 499.73049068 432.06681633 C499.72765234 431.33398783 499.72481399 430.60115932 499.72188963 429.8461239 C499.64434887 409.80788305 499.57041389 389.76962883 499.49739558 369.73137105 C499.48939414 367.53643823 499.48139177 365.34150542 499.47338782 363.14657262 C499.46808492 361.69220525 499.46278454 360.23783787 499.4574867 358.78347048 C499.42506523 349.89013117 499.39182479 340.99679569 499.35719709 332.10346469 C498.94652746 226.0679534 499 120.03770204 499 14 C338.95 14 178.9 14 14 14 C14 322.55 14 631.1 14 949 C9.38 949 4.76 949 0 949 C0 635.83 0 322.66 0 0 Z " fill="#510E0E" transform="translate(209,218)"/>
<path d="M0 0 C2.52295683 2.78319189 4.41785265 5.33760103 5.6875 8.875 C6.03361328 9.79925781 6.03361328 9.79925781 6.38671875 10.7421875 C7.90996694 16.35006937 8.17570654 22.05852924 8.23828125 27.83984375 C8.246353 28.56563126 8.25442474 29.29141876 8.26274109 30.03919983 C8.27648162 31.5644397 8.28724793 33.08970902 8.29516602 34.61499023 C8.30670934 36.1616326 8.32719844 37.70823441 8.35668945 39.25463867 C8.66155861 55.28666881 8.66155861 55.28666881 4 62 C0.19823445 65.27374255 -4.08736666 65.99031039 -9 66 C-14.6721629 64.86556742 -19.00211854 61.78175994 -22.35400391 57.11474609 C-23.7003681 54.93450472 -24.98313063 52.72733639 -26.25 50.5 C-30.97621423 42.49223394 -36.03058018 35.13847431 -42 28 C-42.85271484 26.97519531 -42.85271484 26.97519531 -43.72265625 25.9296875 C-55.97469198 12.50362377 -74.53708677 7.01877125 -92.10546875 5.78125 C-109.32353249 5.26791642 -125.12360431 9.11342026 -138.5625 20.3125 C-144.31295963 25.82650981 -148.63517786 33.11975627 -149.23828125 41.1875 C-149.46116102 52.63648189 -147.75794772 61.92974128 -140.1328125 70.87890625 C-133.2413916 77.7324622 -125.72339913 81.37274846 -116.625 84.3359375 C-115.71555634 84.63520142 -114.80611267 84.93446533 -113.86911011 85.24279785 C-102.75422705 88.82489457 -91.44586499 91.65463038 -80.125 94.5 C-67.50457441 97.68271055 -54.92324005 100.9197734 -42.46484375 104.6953125 C-41.53660797 104.97572388 -40.60837219 105.25613525 -39.65200806 105.54504395 C-13.70786131 113.54484285 8.79219965 128.17304136 22.62109375 152.17578125 C33.3188757 174.08653578 33.4078593 198.2507621 25.8125 221.0625 C14.70211346 250.26884544 -6.66067359 272.78267184 -34.9387207 285.86157227 C-78.78842467 305.35211492 -133.06090326 305.50817221 -177.796875 288.6953125 C-201.96728178 279.19097891 -225.32154119 263.60393455 -236.90625 239.7265625 C-239.9537918 232.12947614 -240.33013608 222.4476274 -238.38671875 214.48828125 C-236.03033408 209.2045817 -231.75278692 205.2025615 -227 202 C-220.45308658 199.73376074 -213.08107745 200.11809345 -206.8125 202.9375 C-198.07078919 207.90719701 -193.08130186 216.2005646 -187.71313477 224.40405273 C-175.35191415 243.25793981 -160.34837341 254.13162878 -139 261 C-137.94941406 261.34289063 -136.89882813 261.68578125 -135.81640625 262.0390625 C-114.41688236 267.75628861 -89.63318827 265.42189838 -70.16015625 254.9140625 C-58.29680788 247.7285981 -51.26885295 239.22249836 -47 226 C-44.52016048 215.47299911 -46.0049555 205.60131376 -51.5625 196.3125 C-66.15748732 176.04366675 -100.53396169 172.60644981 -123.3125 167.9375 C-152.13284749 162.0218017 -179.23691593 154.60365936 -202 135 C-202.68835938 134.40832031 -203.37671875 133.81664062 -204.0859375 133.20703125 C-218.6887837 119.67198211 -227.19602972 99.39315004 -228.16015625 79.734375 C-228.77473212 54.18939527 -219.59430788 32.18326945 -203 13 C-202.32066406 12.13890625 -201.64132812 11.2778125 -200.94140625 10.390625 C-182.78869313 -11.9624141 -150.52959187 -21.73528397 -123.08984375 -24.66015625 C-83.38566118 -28.46178115 -33.86111505 -23.58090171 0 0 Z " fill="#510E0E" transform="translate(548,1150)"/>
<path d="M0 0 C3.25570281 2.77763493 4.63413047 4.92817682 5.6875 9.0625 C6.03361328 10.34833984 6.03361328 10.34833984 6.38671875 11.66015625 C7.91734546 19.9957348 8.15367698 28.43212791 8.20532227 36.88745117 C8.21522186 37.91318237 8.22512146 38.93891357 8.23532104 39.99572754 C8.26659926 43.34478546 8.2915585 46.6938575 8.31640625 50.04296875 C8.33700496 52.38137658 8.35800214 54.71978092 8.37937927 57.05818176 C8.43429892 63.18186609 8.48383969 69.30558232 8.53222656 75.42932129 C8.58266286 81.6905396 8.63823286 87.95171217 8.69335938 94.21289062 C8.80057212 106.47522125 8.9020974 118.73759176 9 131 C10.43001343 130.07441284 10.43001343 130.07441284 11.88891602 129.13012695 C13.15636829 128.31194282 14.42386752 127.49383143 15.69140625 126.67578125 C16.31776978 126.27008911 16.9441333 125.86439697 17.58947754 125.44641113 C38.95485728 111.67108779 64.73934788 108.91548671 89.625 113.125 C113.80517067 118.5916001 134.22654434 131.54504401 148.2421875 152.19140625 C164.50589743 178.17720056 168.05243942 210.36387854 161.45751953 240.06591797 C154.89040355 267.82722681 138.66382545 290.61339617 114.39477539 305.81005859 C79.72748711 326.86458644 37.75689758 331.27236713 -1.5078125 321.96875 C-20.22244401 317.14472048 -40.71425156 307.1223884 -51.11474609 290.18457031 C-66.48306384 263.21434967 -63.30524104 230.48481709 -63.33885384 200.44018435 C-63.34715728 195.34128365 -63.36808446 190.24243598 -63.38806152 185.14356995 C-63.44072662 171.14266903 -63.47460857 157.14173588 -63.50782013 143.14077759 C-63.53855781 130.24502499 -63.57334179 117.34931941 -63.62413073 104.45362812 C-63.64740596 98.40248902 -63.66120028 92.35142649 -63.66762543 86.30024707 C-63.6735672 82.54579306 -63.68766311 78.79140161 -63.70396996 75.03697968 C-63.70983778 73.29995855 -63.71231987 71.56292212 -63.71113014 69.82589149 C-63.70996755 67.45166112 -63.72101373 65.07778073 -63.73498535 62.70359802 C-63.73168638 62.02053335 -63.7283874 61.33746868 -63.72498846 60.63370508 C-63.77705903 55.25657496 -64.30058771 50.05101483 -67.8125 45.8125 C-68.534375 45.214375 -69.25625 44.61625 -70 44 C-70.79535156 43.33355469 -71.59070313 42.66710938 -72.41015625 41.98046875 C-75.80370431 39.38540259 -79.32072238 37.01682141 -82.93359375 34.73828125 C-85.40458414 32.65965984 -86.11709619 31.08056657 -87 28 C-87.06182915 24.59939658 -86.97155561 22.16980167 -84.73413086 19.47583008 C-79.77626265 15.08478571 -74.77663745 13.07537941 -68.5 11.125 C-66.96545166 10.6307251 -66.96545166 10.6307251 -65.39990234 10.12646484 C-12.39516089 -6.54838689 -12.39516089 -6.54838689 0 0 Z M21 154 C9.79295416 167.50828729 7.67974556 180.90164644 7.69921875 198.03515625 C7.69531848 199.48229594 7.69098115 200.9294345 7.68623352 202.37657166 C7.67881153 205.39976723 7.67903127 208.42284597 7.68432617 211.44604492 C7.68894594 214.5112988 7.68208116 217.57615494 7.66381836 220.64135742 C6.46299358 256.23945199 6.46299358 256.23945199 22 287 C28.8318131 293.13357168 35.81898543 295.85961751 45 296 C55.40177008 295.25107255 63.1802657 291.84075675 71 285 C77.15636235 277.40996423 82.07480688 269.35631622 85 260 C85.19464844 259.3802832 85.38929688 258.76056641 85.58984375 258.12207031 C89.16527026 246.03455816 89.39544621 233.81404543 89.4375 221.3125 C89.4467601 220.14547043 89.4467601 220.14547043 89.45620728 218.9548645 C89.56997622 196.62646063 85.97335586 170.52708243 70.1875 153.5 C62.67584813 146.57405198 54.135942 143.60175437 44.07421875 143.72265625 C35.40148818 144.5050754 27.16648938 147.78023641 21 154 Z " fill="#510E0E" transform="translate(939,1123)"/>
<path d="M0 0 C0.99334524 -0.00467997 1.98669047 -0.00935994 3.01013708 -0.01418173 C6.33034051 -0.02612378 9.6501306 -0.01667736 12.97033691 -0.00723267 C15.35407247 -0.0112987 17.73780615 -0.01664076 20.12153625 -0.02316284 C25.91892166 -0.03541868 31.71617627 -0.03362985 37.51356566 -0.02492492 C42.22635391 -0.01814227 46.93910951 -0.01723416 51.65190125 -0.02049637 C52.65906618 -0.02118592 52.65906618 -0.02118592 53.68657789 -0.0218894 C55.05071804 -0.0228486 56.41485818 -0.02382124 57.77899832 -0.02480717 C70.56238339 -0.03335623 83.34570385 -0.02353455 96.12907833 -0.00740607 C107.09133359 0.00599669 118.05349353 0.00366846 129.01574707 -0.01016235 C141.75423644 -0.02622673 154.49266923 -0.0325323 167.23116732 -0.02332556 C168.59021281 -0.02236994 169.94925832 -0.02142683 171.30830383 -0.02049637 C172.31124718 -0.01980213 172.31124718 -0.01980213 173.334452 -0.01909386 C178.04009509 -0.01650655 182.74570221 -0.02086939 187.45133972 -0.02793503 C193.78791019 -0.03660083 200.12430065 -0.03058957 206.46085167 -0.01325226 C208.78644703 -0.00928539 211.11205753 -0.01042486 213.43764687 -0.01704025 C216.61203747 -0.02523764 219.78585122 -0.01495541 222.96020508 0 C223.88054079 -0.00669217 224.80087649 -0.01338433 225.74910116 -0.02027929 C231.25096329 0.02999886 235.11471367 0.75039843 239.98010254 3.38095093 C244.56538397 8.3976003 245.60845468 14.68507073 247.10510254 21.13095093 C247.35646973 22.16477905 247.60783691 23.19860718 247.86682129 24.26376343 C254.72472667 52.77254287 254.72472667 52.77254287 250.48010254 61.50595093 C246.90963032 65.61199397 243.30007786 67.83383889 237.89416504 68.72470093 C231.76815645 69.00635649 227.71375311 66.80811267 223.08557129 62.99813843 C222.10622049 62.0912523 221.13375762 61.17688241 220.16760254 60.25595093 C219.64698242 59.77166626 219.1263623 59.28738159 218.58996582 58.78842163 C215.40796819 55.80816871 212.36793698 52.7204216 209.35510254 49.56845093 C198.14194567 38.29490003 183.49968293 34.22091951 167.98010254 34.13095093 C167.09064941 34.11032593 166.20119629 34.08970093 165.28479004 34.06845093 C160.4116628 34.03935763 156.83490591 34.03811363 152.98010254 37.38095093 C147.79101187 46.21330235 149.83791909 59.09392532 149.85070801 69.03500366 C149.8493508 70.81217993 149.84756907 72.58935591 149.84539795 74.36653137 C149.84085335 79.1780602 149.84260315 83.98956749 149.84577703 88.80109668 C149.84832587 93.87760646 149.8459552 98.95411452 149.84439087 104.03062439 C149.84257236 112.58059007 149.8449628 121.13054711 149.84973145 129.68051147 C149.85512989 139.47072061 149.85344263 149.26090877 149.84790504 159.05111736 C149.8433122 167.51888912 149.84275431 175.98665469 149.84534371 184.4544273 C149.84687869 189.48282497 149.84717978 194.51121292 149.84380722 199.53960991 C149.83325013 218.02568958 149.85574247 236.51067484 150.30744958 254.99224675 C150.34426781 256.51279605 150.37829068 258.03341605 150.40928817 259.55409515 C150.45327606 261.62800729 150.50989193 263.70116464 150.57070923 265.77464294 C150.6165726 267.51710596 150.6165726 267.51710596 150.6633625 269.29477024 C151.09161001 273.4674325 151.93218614 276.33303453 154.91760254 279.31845093 C157.73128295 281.21337855 160.54012977 282.7491585 163.54260254 284.31845093 C171.15073913 288.46088649 171.15073913 288.46088649 172.98010254 292.38095093 C173.74008349 297.70898939 173.63616079 301.9679024 171.35510254 306.88095093 C166.39840917 312.09852289 160.95584865 313.15363234 153.93758202 313.47426414 C151.65196437 313.51723764 149.36841817 313.52750848 147.08239746 313.5262146 C145.78822655 313.53125252 145.78822655 313.53125252 144.46791077 313.53639221 C141.63211606 313.54584581 138.79638075 313.54784252 135.96057129 313.54891968 C133.97670976 313.55213618 131.99284847 313.55550055 130.00898743 313.55900574 C125.85571747 313.56498305 121.70246829 313.56684708 117.54919434 313.56625366 C112.24686083 313.56615213 106.94466148 313.57980151 101.64235973 313.59702587 C97.54579567 313.60818524 93.44926363 313.61017166 89.35268593 313.60964394 C87.39881236 313.61081823 85.44493781 313.61520882 83.49107933 313.6229763 C80.7492897 313.63285581 78.00778618 313.62986699 75.26599121 313.62387085 C74.47137482 313.62949036 73.67675842 313.63510986 72.85806274 313.64089966 C65.83613898 313.60219128 58.11057504 313.1016087 51.98010254 309.38095093 C48.58915504 304.76549461 47.53232858 301.37634984 47.44885254 295.68954468 C48.38476603 291.62245004 50.30840278 288.53609637 53.77600098 286.13998413 C55.85900115 284.96911295 57.96330759 283.87785397 60.10510254 282.81845093 C61.55245836 282.10245809 62.99295842 281.37239872 64.42541504 280.62704468 C65.37698486 280.15802734 65.37698486 280.15802734 66.34777832 279.67953491 C69.04108524 277.53689364 69.79543829 274.81248924 70.23017466 271.44236338 C70.40165833 269.09564768 70.51018658 266.75393149 70.59602356 264.4025116 C70.63361229 263.52178476 70.67120103 262.64105793 70.70992881 261.7336424 C71.09823418 251.83600147 71.12831408 241.93978842 71.12536621 232.03598022 C71.12836786 229.98530009 71.13177266 227.93462051 71.13554382 225.88394165 C71.14427468 220.38276226 71.14671695 214.88159847 71.14735961 209.38041282 C71.14807508 205.93691903 71.15021846 202.49342911 71.15285683 199.04993629 C71.16206609 187.02070492 71.1661963 174.99148454 71.16540527 162.96224976 C71.16480204 151.76821005 71.17541311 140.57421814 71.19114894 129.38019055 C71.2042181 119.73814184 71.2095896 110.09610881 71.20894986 100.45405132 C71.20869518 94.70791831 71.2115316 88.9618281 71.22212791 83.21570396 C71.23180113 77.82535524 71.23189343 72.43509043 71.22461128 67.04473877 C71.22356527 65.06905304 71.22592928 63.09336209 71.23197174 61.11768532 C71.2396906 58.41922418 71.23504795 55.72105316 71.2273407 53.02259827 C71.23248426 52.24342236 71.23762782 51.46424645 71.24292725 50.66145915 C71.20914217 45.30120465 70.97694707 39.70584849 67.33947754 35.47079468 C63.9959211 33.92633732 60.84339826 33.891751 57.23010254 33.94345093 C56.48147949 33.95174927 55.73285645 33.96004761 54.96154785 33.96859741 C37.69083238 34.47815968 22.12546851 40.90020996 9.98010254 53.38095093 C8.19181431 55.34538746 6.45135279 57.34143273 4.72619629 59.36141968 C-5.66997404 71.38562563 -5.66997404 71.38562563 -13.98864746 72.68954468 C-19.42144261 73.03431822 -22.61962287 71.51191554 -27.01989746 68.38095093 C-31.14772478 64.68763175 -31.50215625 61.42978638 -31.9486084 56.17684937 C-32.06720362 51.5256421 -31.31964171 47.12670415 -30.45739746 42.56845093 C-30.27684814 41.58304321 -30.09629883 40.5976355 -29.91027832 39.58236694 C-28.57203437 32.58880111 -26.96136905 25.68605853 -25.08239746 18.81845093 C-24.85415283 17.95695435 -24.6259082 17.09545776 -24.39074707 16.20785522 C-22.83173975 10.82068426 -21.12416856 7.26336954 -17.01989746 3.38095093 C-11.25417794 0.27875578 -6.47529299 -0.0470847 0 0 Z " fill="#510E0E" transform="translate(1282.0198974609375,1130.6190490722656)"/>
<path d="M0 0 C0.75410156 -0.01611328 1.50820313 -0.03222656 2.28515625 -0.04882812 C7.96716935 -0.05378625 12.03415994 1.07596286 16.453125 4.890625 C24.86626786 14.78300178 23.77080731 28.20487334 23.78271484 40.57006836 C23.78779556 41.74233475 23.79287628 42.91460114 23.79811096 44.12239075 C23.80874891 46.64913646 23.81739442 49.17589121 23.82423019 51.70265007 C23.83610859 55.71006555 23.85530682 59.7173779 23.87734985 63.7247467 C23.93887189 75.11227726 23.99324389 86.4997997 24.02636719 97.88745117 C24.04479173 104.19464506 24.07381556 110.50169981 24.1143719 116.80879122 C24.13529332 120.13462655 24.14918282 123.46013086 24.15317917 126.78605461 C24.15811543 130.49942115 24.18134177 134.21227557 24.20849609 137.92553711 C24.20548996 139.0059024 24.20248383 140.0862677 24.1993866 141.19937134 C24.32088725 152.44940491 26.1953006 163.34847656 34.03515625 171.83984375 C39.75900997 177.10578917 46.28488091 177.73174696 53.73046875 177.55859375 C64.45770845 176.64656122 74.10061666 172.40317114 81.5 164.5 C88.51777269 155.84364359 89.77199827 146.84210148 89.78613281 136.02172852 C89.79109772 135.1055072 89.79606262 134.18928589 89.80117798 133.24530029 C89.81573216 130.22732786 89.82258919 127.20940794 89.828125 124.19140625 C89.83388059 122.08682759 89.83963827 119.98224894 89.84539795 117.87767029 C89.85588775 113.47044634 89.8617441 109.06324053 89.86523438 104.65600586 C89.87072464 99.01587593 89.8947727 93.37598672 89.92320633 87.73593235 C89.94184856 83.39071454 89.94703909 79.04555464 89.94857025 74.70030022 C89.95159208 72.62113054 89.95960472 70.54196178 89.97275543 68.4628315 C89.98985412 65.55259049 89.98792663 62.6429372 89.98144531 59.73266602 C89.99526749 58.45207558 89.99526749 58.45207558 90.0093689 57.14561462 C89.96793831 51.19197188 89.13804281 46.15522417 85.046875 41.52734375 C84.49515625 41.10582031 83.9434375 40.68429687 83.375 40.25 C82.46621094 39.52876953 82.46621094 39.52876953 81.5390625 38.79296875 C80.90742187 38.30441406 80.27578125 37.81585937 79.625 37.3125 C78.32655247 36.23730333 77.03462858 35.15416996 75.75 34.0625 C75.17507813 33.58296875 74.60015625 33.1034375 74.0078125 32.609375 C71.22712904 30.00150238 71.37567318 27.24255202 71.1015625 23.578125 C71.91508579 20.05690481 74.04577614 17.71926079 76.625 15.3125 C93.39321533 5.3644564 119.498961 0.05789653 138.875 0 C140.83179688 -0.02513672 140.83179688 -0.02513672 142.828125 -0.05078125 C148.50693096 0.4925613 152.2807398 1.99811225 156.4375 6.0625 C161.39445642 13.42712096 160.92388624 20.90731947 160.92797852 29.52124023 C160.93565016 30.85590626 160.9441985 32.19056748 160.95355225 33.52522278 C160.97177033 36.390355 160.98384795 39.25542276 160.99109077 42.12060356 C161.00264258 46.66649702 161.02813312 51.21224946 161.05540466 55.7580719 C161.09700572 62.96361184 161.12942964 70.16915885 161.15787882 77.37476164 C161.2087802 90.23830474 161.27161723 103.10178462 161.34321922 115.96522862 C161.36787672 120.4680578 161.38726192 124.97087097 161.40276545 129.4737404 C159.82082073 153.70474593 159.82082073 153.70474593 165.625 176.3125 C167.62495792 178.12408521 167.62495792 178.12408521 169.9375 179.4375 C170.72898437 179.93121094 171.52046875 180.42492188 172.3359375 180.93359375 C173.09132813 181.38863281 173.84671875 181.84367187 174.625 182.3125 C179.14681971 185.1457921 182.10153681 187.04415953 183.375 192.5625 C183.65531635 196.76724531 183.23920804 199.42372608 181.625 203.3125 C177.72048055 207.32547833 173.35390318 209.06066315 167.8000946 209.57319641 C166.34190056 209.5801075 166.34190056 209.5801075 164.85424805 209.5871582 C163.7425676 209.59669022 162.63088715 209.60622223 161.48551941 209.61604309 C159.70411308 209.61467598 159.70411308 209.61467598 157.88671875 209.61328125 C156.03370903 209.61970894 156.03370903 209.61970894 154.14326477 209.62626648 C150.86697185 209.6334657 147.59086344 209.63039637 144.3145752 209.62469482 C141.0045659 209.62519937 137.69469815 209.65271703 134.38476562 209.67382812 C131.84375093 209.67610187 129.30273425 209.67680427 126.76171875 209.67578125 C125.58018723 209.684991 124.3986557 209.69420074 123.18132019 209.70368958 C115.15132729 209.6590767 107.93942273 209.26665939 101.75 203.75 C97.89823416 198.41883621 96.40545404 191.79488331 96.625 185.3125 C92.97512663 187.37773084 89.91126458 189.68985882 86.75 192.4375 C64.46491408 210.8286865 38.7693338 216.78899526 10.22802734 214.08544922 C-6.70467558 211.87683579 -22.58862541 203.72377966 -33.375 190.3125 C-47.07727861 170.19906351 -47.6570036 147.52230573 -47.67996025 123.92397308 C-47.68369629 120.83715297 -47.70060619 117.75063404 -47.72071838 114.66387939 C-47.77550717 105.90439433 -47.806959 97.14487143 -47.83129883 88.38525391 C-47.84718382 82.98808745 -47.87738289 77.59114809 -47.91606331 72.19409943 C-47.92767278 70.1512518 -47.9336433 68.1083637 -47.93374443 66.06548309 C-47.93393684 63.21886846 -47.95222032 60.37288371 -47.97436523 57.52636719 C-47.96978806 56.69306381 -47.96521088 55.85976044 -47.960495 55.00120544 C-48.02584514 49.7076051 -48.86102599 46.0014962 -51.375 41.3125 C-54.15040216 38.76163593 -54.15040216 38.76163593 -57.375 36.6875 C-61.45617369 33.91670315 -64.2616796 31.83186424 -66.375 27.3125 C-66.98503292 22.50849072 -66.95125748 20.40098635 -64.6875 16.125 C-51.66053702 3.02743017 -17.66970927 -0.07790877 0 0 Z " fill="#510E0E" transform="translate(663.375,1234.6875)"/>
<path d="M0 0 C9.74490832 8.90915288 16.13050517 21.40504444 17.2109375 34.5703125 C17.72173864 48.36194331 13.14277466 60.81199955 4 71.0625 C-21.20529841 97.96751186 -61.23824147 103.02163648 -95.8125 108.375 C-96.66714844 108.50832733 -97.52179688 108.64165466 -98.40234375 108.77902222 C-100.85706968 109.15917497 -103.31292469 109.53065279 -105.76953125 109.8984375 C-106.49763504 110.01062119 -107.22573883 110.12280487 -107.97590637 110.23838806 C-112.38125403 110.8823456 -116.56464577 111.102279 -121 111 C-115.47937032 126.19935065 -108.63374635 140.55438958 -94 149 C-77.0248997 156.82668747 -58.60624291 156.9090697 -41.12109375 150.6640625 C-30.44295941 146.53520137 -21.81488879 140.19602107 -13 133 C-12.43812988 132.54173828 -11.87625977 132.08347656 -11.29736328 131.61132812 C-8.92796222 129.67200686 -6.56987053 127.72228153 -4.234375 125.7421875 C1.28446387 121.43903691 6.14935448 121.34852702 13 122 C16.26269829 123.29148474 17.5619688 124.48644618 19.8125 127.125 C21.79864563 131.93356311 22.02157606 136.36660393 20.12109375 141.265625 C18.87360481 143.62062063 17.50191351 145.79872218 16 148 C15.50371094 148.7425 15.00742188 149.485 14.49609375 150.25 C9.89825179 156.63158306 4.23362082 161.27014185 -2 166 C-3.08474609 166.87591797 -3.08474609 166.87591797 -4.19140625 167.76953125 C-17.3126975 177.79241383 -33.96154605 184.41694114 -50 188 C-50.70705078 188.16081055 -51.41410156 188.32162109 -52.14257812 188.48730469 C-87.23189959 196.09155889 -123.14705576 190.11784044 -153.6875 171.6875 C-175.23646329 157.42953933 -190.59208677 137.64542874 -196.8125 112.375 C-202.23133202 83.82936706 -197.45107458 55.53235259 -182.0234375 30.8359375 C-177.51512276 24.45963578 -172.34704322 18.67940057 -167 13 C-166.44957031 12.38511719 -165.89914062 11.77023437 -165.33203125 11.13671875 C-152.18502878 -2.98413575 -133.10209062 -11.4012393 -115 -17 C-114.02498535 -17.30164062 -114.02498535 -17.30164062 -113.03027344 -17.609375 C-75.65866806 -28.90288719 -30.55753267 -26.1985251 0 0 Z M-101 18 C-101.60457031 18.50015625 -102.20914062 19.0003125 -102.83203125 19.515625 C-119.3820645 34.30978565 -122.49458451 59.27028999 -125 80 C-125 80.99 -125 81.98 -125 83 C-101.96491286 80.17937708 -73.85955678 75.77271203 -58.16015625 56.7734375 C-51.78350361 47.69956993 -48.83930038 37.96334428 -50.625 26.875 C-52.27547191 19.83003264 -55.7942207 13.89665212 -62 10 C-75.89465439 2.65522846 -90.0539422 8.24237133 -101 18 Z " fill="#510E0E" transform="translate(1747,1258)"/>
<path d="M0 0 C0.67659668 0.16628906 1.35319336 0.33257813 2.05029297 0.50390625 C19.28618843 4.76455333 38.29394136 11.66618743 48.75 26.875 C53.39955092 34.77923656 55.65682802 42.30685371 53.41015625 51.3828125 C51.03742569 57.8340154 46.80161619 61.50313545 41 65 C33.49809692 68.25554285 24.41738371 68.19019708 16.75 65.4375 C7.99513799 61.38715843 2.75281068 54.59145362 -3.00146484 47.13549805 C-9.71638746 38.44017507 -16.57656042 31.20801106 -27.875 29 C-37.19754501 28.378497 -46.0134581 32.05817465 -53 38 C-62.28335937 46.46273092 -66.38283222 57.16408523 -69.75 69 C-69.94875732 69.69859131 -70.14751465 70.39718262 -70.35229492 71.11694336 C-73.33521837 82.28788298 -74.36726463 93.40041775 -74.3125 104.9375 C-74.30758545 106.16662109 -74.3026709 107.39574219 -74.29760742 108.66210938 C-74.04834576 127.91789258 -68.66255428 146.13494316 -55.0625 160.375 C-43.90734407 170.86513702 -31.28197972 173.45671829 -16.34375 173.203125 C0.23255832 172.61521095 14.99722127 163.92024964 27 153 C28.64505026 151.51996249 30.29084261 150.04074925 31.9375 148.5625 C32.62714844 147.92441406 33.31679687 147.28632812 34.02734375 146.62890625 C38.60977964 142.84499384 42.46495945 142.51970529 48.296875 142.60546875 C52.5220018 143.22214188 54.16996579 144.87206745 57 148 C59.42134764 152.84269527 58.72192238 160.14645545 57.421875 165.28515625 C49.04808353 183.82168555 26.32088503 196.61726305 8.1875 203.875 C-17.00781053 213.27926467 -46.12114167 214.51656134 -72 207 C-72.72783691 206.79101074 -73.45567383 206.58202148 -74.20556641 206.36669922 C-89.54479684 201.79880436 -104.00198208 194.66966594 -116 184 C-116.7425 183.39929687 -117.485 182.79859375 -118.25 182.1796875 C-136.59842435 166.95304368 -147.17239949 143.35935642 -150 120 C-152.23237509 84.78162532 -142.95553934 55.85760528 -120.30078125 28.984375 C-107.99830085 15.72124752 -89.24455669 5.8071863 -72 1 C-71.30358398 0.80390137 -70.60716797 0.60780273 -69.88964844 0.40576172 C-48.27603698 -5.35315916 -21.64286188 -5.74056657 0 0 Z " fill="#510E0E" transform="translate(1942,1238)"/>
<path d="M0 0 C10.01307549 10.76071846 8.60894653 29.44978745 8.63842773 42.99682617 C8.64869189 44.98569968 8.65895823 46.97457319 8.66930687 48.96344626 C8.67946412 51.07862128 8.68735253 53.1937942 8.69463921 55.30898094 C8.71023277 59.73534793 8.73417709 64.16164651 8.75953674 68.58796692 C8.83037934 81.16659206 8.89057297 93.74525404 8.94165039 106.32397461 C8.97000514 113.2888541 9.00540175 120.25366308 9.04830414 127.21846849 C9.07495572 131.61262624 9.09293337 136.00670453 9.10434139 140.40092695 C9.11565704 143.78060471 9.13976352 147.16017094 9.16186523 150.53979492 C9.16245438 151.74675018 9.16304352 152.95370544 9.16365051 154.19723511 C9.10366411 164.88227108 9.10366411 164.88227108 13.58984375 174.26171875 C15.91511195 176.13204317 18.02117707 177.4901783 20.58984375 178.94921875 C23.60184886 180.78608551 24.57109246 181.73671678 26.58984375 184.82421875 C27.70582391 189.60699086 27.36551092 193.05465996 25.46484375 197.57421875 C21.74911723 201.96553191 16.96027523 202.82075148 11.46484375 203.57421875 C5.65033774 203.86501785 -0.15600469 203.85622994 -5.9765625 203.83984375 C-7.67089392 203.84119339 -9.36522495 203.8431364 -11.05955505 203.84564209 C-14.59727697 203.8485785 -18.13489738 203.84434315 -21.67260742 203.83496094 C-26.19040524 203.82355853 -30.70796558 203.83014029 -35.22575474 203.84210587 C-38.72004462 203.84935719 -42.21427885 203.84702169 -45.70857048 203.84185028 C-47.37381964 203.84052328 -49.03907398 203.84212794 -50.70431709 203.84680939 C-53.03681827 203.85192973 -55.36894265 203.84408829 -57.70141602 203.83300781 C-58.37852127 203.83705627 -59.05562653 203.84110474 -59.75325012 203.84527588 C-67.81513313 203.77488179 -73.7500598 202.21821528 -79.53515625 196.57421875 C-81.28519932 193.07413262 -81.08449861 189.39376385 -80.53515625 185.57421875 C-77.92752549 181.28424557 -75.10028845 179.20488692 -70.91015625 176.51171875 C-67.35383176 174.21369512 -65.0286066 172.6812072 -63.53515625 168.57421875 C-62.57735878 162.05784445 -62.38629726 155.53153426 -62.38989258 148.95629883 C-62.38653397 148.05234375 -62.38317535 147.14838867 -62.37971497 146.21704102 C-62.37029704 143.25926296 -62.3682664 140.30154208 -62.3671875 137.34375 C-62.36396822 135.26405312 -62.36060365 133.18435646 -62.35710144 131.10466003 C-62.35113278 126.754908 -62.34925917 122.40517576 -62.34985352 118.05541992 C-62.34995493 112.51937801 -62.33631412 106.98346495 -62.31908131 101.4474535 C-62.30788657 97.15339084 -62.3059366 92.85935857 -62.30646324 88.56528282 C-62.30529392 86.52622726 -62.30093206 84.48717063 -62.29313087 82.44812965 C-61.09382678 62.8611825 -61.09382678 62.8611825 -66.68359375 44.92578125 C-70.01016751 42.18249713 -73.38478797 40.01387328 -77.16015625 37.94921875 C-85.54063969 33.32215647 -85.54063969 33.32215647 -87.53515625 29.57421875 C-87.96875 27.390625 -87.96875 27.390625 -87.97265625 25.13671875 C-87.99199219 24.39550781 -88.01132813 23.65429688 -88.03125 22.890625 C-87.16643839 18.85256764 -84.69783777 16.40106173 -81.3984375 14.0546875 C-66.93531083 6.72345484 -50.80120597 2.43294581 -35.09765625 -1.36328125 C-34.27724854 -1.56252197 -33.45684082 -1.7617627 -32.61157227 -1.96704102 C-22.2810083 -4.3432082 -8.90226632 -7.31033163 0 0 Z " fill="#510E0E" transform="translate(1213.53515625,1240.42578125)"/>
<path d="M0 0 C184.47 0 368.94 0 559 0 C559 7.92 559 15.84 559 24 C374.53 24 190.06 24 0 24 C0 16.08 0 8.16 0 0 Z " fill="#CB6532" transform="translate(309,1583)"/>
<path d="M0 0 C2.875 2.5625 2.875 2.5625 5 5 C5.70125 5.763125 6.4025 6.52625 7.125 7.3125 C12.65786074 15.24293372 13.17630768 23.54132925 12 33 C8.5051954 43.86859443 2.13162951 49.70360618 -7.6640625 54.90234375 C-20.93781691 61.13967651 -35.27961199 62.01333719 -49.12109375 57.20703125 C-53.09160355 55.54232633 -56.54177367 53.55033875 -60 51 C-60.886875 50.401875 -61.77375 49.80375 -62.6875 49.1875 C-69.40692158 42.8312904 -71.93171497 35.23909439 -72.375 26.1875 C-72.1482474 17.50420932 -68.98331476 10.01770896 -62.97265625 3.77734375 C-45.42367634 -12.0341134 -19.18512973 -13.72848957 0 0 Z " fill="#510E0E" transform="translate(1211,1152)"/>
<path d="M0 0 C2.171875 1.10546875 2.171875 1.10546875 5.296875 3.10546875 C5.956875 2.11546875 6.616875 1.12546875 7.296875 0.10546875 C8.616875 0.10546875 9.936875 0.10546875 11.296875 0.10546875 C11.41415626 3.77186123 11.48448391 7.43776395 11.546875 11.10546875 C11.58039063 12.13542969 11.61390625 13.16539063 11.6484375 14.2265625 C11.73048916 20.66761742 11.23056775 25.81851317 7.296875 31.10546875 C1.08778442 36.04739799 -4.46441822 36.35360774 -12.07421875 36.7109375 C-15.69105621 36.5766723 -15.69105621 36.5766723 -18.703125 38.10546875 C-18.86979167 41.10546875 -18.86979167 41.10546875 -18.703125 44.10546875 C-16.77518408 46.03340967 -13.14241201 45.37508709 -10.578125 45.48046875 C-3.20841882 45.89268733 1.47398249 46.65077961 7.171875 51.60546875 C10.65247482 55.70029206 10.64187052 59.43747713 10.57421875 64.6015625 C10.15953151 68.34542903 8.80010123 70.33874502 6.296875 73.10546875 C-0.3290339 78.37147495 -6.55505803 77.9851401 -14.703125 77.10546875 C-18.62429194 75.92469867 -20.94083991 74.02021086 -23.578125 70.85546875 C-25.91059688 65.15387081 -26.30735327 61.1716068 -24.015625 55.54296875 C-23.08594251 53.31629474 -23.08594251 53.31629474 -22.703125 51.10546875 C-24.35715534 47.84367017 -24.35715534 47.84367017 -25.765625 45.9296875 C-27.54090551 42.47528751 -26.65717625 38.74026962 -25.703125 35.10546875 C-25.31640625 34.43 -24.9296875 33.75453125 -24.53125 33.05859375 C-23.4529857 31.14652379 -23.4529857 31.14652379 -24.3828125 29.3515625 C-24.77726562 28.75472656 -25.17171875 28.15789062 -25.578125 27.54296875 C-28.65558914 21.95137289 -28.62794643 16.17926894 -27.23046875 10.0234375 C-23.08557801 -1.36880712 -10.5418407 -3.48855711 0 0 Z M-18.015625 7.85546875 C-20.61387119 12.85949845 -20.54264635 17.58752388 -19.703125 23.10546875 C-17.61096988 26.78477603 -16.69164481 27.77596215 -12.703125 29.10546875 C-7.31764197 29.62989781 -3.06165226 29.6715365 1.296875 26.10546875 C4.42863776 21.40782461 3.96289935 16.5964695 3.296875 11.10546875 C1.86129653 7.58642185 1.86129653 7.58642185 -1.703125 6.10546875 C-7.56729817 5.21946051 -12.70413278 5.04939739 -18.015625 7.85546875 Z M-16.703125 56.10546875 C-18.44702017 59.41731693 -18.44702017 59.41731693 -18.703125 63.10546875 C-17.17913725 66.71491342 -15.98687602 67.9163014 -12.703125 70.10546875 C-7.39269968 70.88641365 -3.08069317 70.99683639 1.484375 68.04296875 C3.76021687 64.35453537 3.99446216 62.36850138 3.296875 58.10546875 C1.07824471 55.19829802 -0.22257429 54.26565232 -3.703125 53.10546875 C-8.87920148 52.71482147 -12.43101075 53.02557243 -16.703125 56.10546875 Z " fill="#510E0E" transform="translate(1376.703125,1566.89453125)"/>
<path d="M0 0 C1.5859375 1.09375 1.5859375 1.09375 3.8984375 3.09375 C4.5584375 3.09375 5.2184375 3.09375 5.8984375 3.09375 C6.5584375 2.10375 7.2184375 1.11375 7.8984375 0.09375 C8.8884375 0.09375 9.8784375 0.09375 10.8984375 0.09375 C10.8984375 25.50375 10.8984375 50.91375 10.8984375 77.09375 C8.5884375 77.09375 6.2784375 77.09375 3.8984375 77.09375 C3.4034375 65.21375 3.4034375 65.21375 2.8984375 53.09375 C1.2484375 54.08375 -0.4015625 55.07375 -2.1015625 56.09375 C-7.71498619 56.88247156 -13.96148068 57.13297106 -19.1640625 54.59375 C-23.96997041 50.50361561 -25.82848753 46.67099296 -26.48461914 40.47851562 C-26.65628021 36.92817283 -26.66368708 33.38423994 -26.62304688 29.83056641 C-26.60160504 27.59817887 -26.62290879 25.36900818 -26.6484375 23.13671875 C-26.66350573 15.62129493 -26.50070499 9.48088973 -22.1015625 3.09375 C-16.22293136 -1.90934033 -7.2126762 -3.11029903 0 0 Z M-18.1015625 11.09375 C-20.19603998 15.28270496 -19.36943874 20.69710206 -19.39672852 25.30517578 C-19.41388301 27.32264084 -19.45776121 29.33844093 -19.50195312 31.35546875 C-19.51033203 32.63550781 -19.51871094 33.91554688 -19.52734375 35.234375 C-19.54192627 36.40516602 -19.55650879 37.57595703 -19.5715332 38.78222656 C-19.00259541 42.79109526 -17.60532845 44.95115232 -15.1015625 48.09375 C-12.44120176 49.42393037 -10.25900868 49.41040139 -7.2890625 49.53125 C-5.73251953 49.62212891 -5.73251953 49.62212891 -4.14453125 49.71484375 C-0.83274453 49.03888215 0.9362249 48.13851492 2.95874023 45.38305664 C4.98408594 40.44887459 4.62923419 34.98355937 4.55029297 29.72607422 C4.52349258 27.59812371 4.55008247 25.47544478 4.58203125 23.34765625 C4.80598907 15.32722454 4.80598907 15.32722454 1.734375 8.16796875 C-2.43434082 5.11894933 -5.27090938 5.31843269 -10.27734375 5.55859375 C-14.18126205 6.29834037 -15.87121316 7.86358889 -18.1015625 11.09375 Z " fill="#510E0E" transform="translate(1525.1015625,1566.90625)"/>
<path d="M0 0 C0.70382812 -0.02900391 1.40765625 -0.05800781 2.1328125 -0.08789062 C7.29717375 -0.15028532 10.15147219 0.92649486 14.25 4.3125 C18.64965394 10.13906873 19.39275995 14.37675145 19.3125 21.5 C19.291875 24.078125 19.27125 26.65625 19.25 29.3125 C9.35 29.3125 -0.55 29.3125 -10.75 29.3125 C-10.6675 31.87 -10.585 34.4275 -10.5 37.0625 C-10.48420898 37.86139648 -10.46841797 38.66029297 -10.45214844 39.48339844 C-10.29249075 42.81940371 -9.95381835 45.00962974 -8.078125 47.796875 C-5.12689174 49.71814766 -3.25519608 49.84755196 0.25 49.8125 C1.796875 49.82796875 1.796875 49.82796875 3.375 49.84375 C6.93293623 49.18630526 8.100425 48.18529649 10.25 45.3125 C10.93116938 43.20311935 10.93116938 43.20311935 11 41.0625 C11.0825 39.825 11.165 38.5875 11.25 37.3125 C13.89 37.6425 16.53 37.9725 19.25 38.3125 C18.98103369 44.36424197 18.34093541 48.55816965 14.25 53.3125 C9.65468525 57.02540571 6.03278306 57.94293872 0.25 57.8125 C-0.43578125 57.82796875 -1.1215625 57.8434375 -1.828125 57.859375 C-6.93438095 57.82039595 -9.81249576 56.47646205 -13.75 53.3125 C-19.87948651 46.68602809 -18.96667544 39.72510538 -18.99023438 31.15063477 C-18.99992126 29.01734135 -19.03096106 26.88502001 -19.0625 24.75195312 C-19.06903309 23.380214 -19.07428236 22.00846805 -19.078125 20.63671875 C-19.0874707 19.40010498 -19.09681641 18.16349121 -19.10644531 16.8894043 C-18.63973169 12.20596503 -17.39488041 8.17920907 -14.21484375 4.5703125 C-9.16866547 0.82762273 -6.1971249 0.08329469 0 0 Z M-9 9.125 C-11.63230782 13.31351117 -11.63230782 13.31351117 -10.75 23.3125 C-3.49 23.3125 3.77 23.3125 11.25 23.3125 C12.13230782 13.31351117 12.13230782 13.31351117 9.5 9.125 C3.56461748 5.81488282 -3.06461748 5.81488282 -9 9.125 Z " fill="#510E0E" transform="translate(1880.75,1565.6875)"/>
<path d="M0 0 C0.71220703 -0.020625 1.42441406 -0.04125 2.15820312 -0.0625 C7.63629464 -0.10304092 10.82214512 0.95632254 14.734375 4.75 C17.84716613 8.63088245 19.32243147 11.30411417 19.28515625 16.26171875 C19.28265869 16.94451904 19.28016113 17.62731934 19.27758789 18.33081055 C19.26848389 19.19101807 19.25937988 20.05122559 19.25 20.9375 C19.229375 23.680625 19.20875 26.42375 19.1875 29.25 C9.2875 29.25 -0.6125 29.25 -10.8125 29.25 C-10.668125 31.6425 -10.52375 34.035 -10.375 36.5 C-10.33189697 37.24668945 -10.28879395 37.99337891 -10.24438477 38.76269531 C-10.04634087 43.61363185 -10.04634087 43.61363185 -8.8125 48.25 C-5.65050849 49.30399717 -3.19789814 49.48445913 0.125 49.5625 C1.68541016 49.61857422 1.68541016 49.61857422 3.27734375 49.67578125 C6.27694763 49.47423406 6.27694763 49.47423406 8.51953125 47.49609375 C10.28197236 45.12278312 10.74375397 43.90619043 10.9375 41 C11.02 39.7625 11.1025 38.525 11.1875 37.25 C13.8275 37.58 16.4675 37.91 19.1875 38.25 C19.50389776 43.52329606 19.01691515 46.76196218 16.1875 51.25 C12.42347535 55.48452773 10.33351183 57.10724458 4.60546875 57.48828125 C3.19542552 57.51879018 1.78524285 57.54332172 0.375 57.5625 C-0.67397461 57.60600586 -0.67397461 57.60600586 -1.74414062 57.65039062 C-6.8902282 57.71297167 -9.7225643 56.61175724 -13.8125 53.25 C-19.72961273 45.73366761 -19.02320016 38.18633796 -19.0625 29 C-19.083125 27.81019531 -19.10375 26.62039063 -19.125 25.39453125 C-19.19301004 10.00725877 -19.19301004 10.00725877 -14.36010742 4.63574219 C-9.56353018 0.50755835 -6.11601017 0.04356908 0 0 Z M-9.8125 11.25 C-11.55785599 14.36803399 -11.55785599 14.36803399 -10.8125 23.25 C-3.2225 23.25 4.3675 23.25 12.1875 23.25 C12.36973977 15.45353672 12.36973977 15.45353672 9.1875 9.25 C5.76828453 6.97052302 4.28439823 6.92486895 0.25 6.875 C-0.79027344 6.84664062 -1.83054687 6.81828125 -2.90234375 6.7890625 C-6.47935938 7.35562336 -7.58171066 8.46539521 -9.8125 11.25 Z " fill="#510E0E" transform="translate(1730.8125,1565.75)"/>
<path d="M0 0 C1.96066406 -0.03867188 1.96066406 -0.03867188 3.9609375 -0.078125 C8.49641854 0.32803748 10.9385765 1.61468024 14.171875 4.75 C17.41119599 8.78863396 18.75323834 11.49481975 18.73852539 16.62963867 C18.73844986 17.51032516 18.73837433 18.39101166 18.73829651 19.29838562 C18.73313522 20.24534805 18.72797394 21.19231049 18.72265625 22.16796875 C18.7212413 23.14034988 18.71982635 24.11273102 18.71836853 25.11457825 C18.71276817 28.22225004 18.70021562 31.32984996 18.6875 34.4375 C18.68248505 36.54361875 18.67792213 38.64973863 18.67382812 40.75585938 C18.66279862 45.92060064 18.64553375 51.08528813 18.625 56.25 C14.625 56.25 14.625 56.25 12.875 54.75 C12.4625 54.255 12.05 53.76 11.625 53.25 C10.92375 53.91 10.2225 54.57 9.5 55.25 C4.27831434 58.74777987 -2.39845146 57.94560779 -8.375 57.25 C-13.32830233 55.02955413 -15.88336914 52.04869646 -18.375 47.25 C-19.87702189 41.86684126 -19.44847017 37.48304376 -17.375 32.25 C-14.65458224 27.9750578 -12.06684762 26.10038035 -7.375 24.25 C-4.0717036 23.90217228 -0.81671299 23.96509653 2.5 24.0625 C3.37914062 24.07603516 4.25828125 24.08957031 5.1640625 24.10351562 C7.31797552 24.13863377 9.47157004 24.19243306 11.625 24.25 C11.39565591 22.33075213 11.14065657 20.4145594 10.875 18.5 C10.73578125 17.43265625 10.5965625 16.3653125 10.453125 15.265625 C9.48590025 11.74346695 8.57274909 10.38457693 5.625 8.25 C0.89081127 7.30316225 -3.81245452 7.2591175 -7.9375 9.875 C-9.58005948 12.58879392 -10.54171032 15.19460449 -11.375 18.25 C-13.685 17.92 -15.995 17.59 -18.375 17.25 C-18.25740075 10.66444192 -16.60085342 7.64023638 -12.1640625 2.81640625 C-8.54414916 -0.35299386 -4.60254379 0.05425395 0 0 Z M-10.375 34.25 C-11.96377137 37.42754275 -11.65008393 40.78394243 -11.375 44.25 C-10.20486774 47.6703866 -9.50189277 48.16540482 -6.375 50.25 C-0.69222643 51.01903631 4.08052774 51.37049948 8.8125 47.9375 C11.57613425 43.8396975 11.73951037 40.89946469 11.6875 36.0625 C11.67847656 34.97582031 11.66945313 33.88914062 11.66015625 32.76953125 C11.64855469 31.93808594 11.63695312 31.10664062 11.625 30.25 C8.8947611 30.1416333 6.16885457 30.06253306 3.4375 30 C2.66857422 29.96648437 1.89964844 29.93296875 1.10742188 29.8984375 C-4.00924943 29.81059765 -6.67455842 30.36992533 -10.375 34.25 Z " fill="#510E0E" transform="translate(1442.375,1565.75)"/>
<path d="M0 0 C1.96066406 -0.03867188 1.96066406 -0.03867188 3.9609375 -0.078125 C8.49641854 0.32803748 10.9385765 1.61468024 14.171875 4.75 C17.41119599 8.78863396 18.75323834 11.49481975 18.73852539 16.62963867 C18.73844986 17.51032516 18.73837433 18.39101166 18.73829651 19.29838562 C18.73313522 20.24534805 18.72797394 21.19231049 18.72265625 22.16796875 C18.7212413 23.14034988 18.71982635 24.11273102 18.71836853 25.11457825 C18.71276817 28.22225004 18.70021562 31.32984996 18.6875 34.4375 C18.68248505 36.54361875 18.67792213 38.64973863 18.67382812 40.75585938 C18.66279862 45.92060064 18.64553375 51.08528813 18.625 56.25 C14.625 56.25 14.625 56.25 12.875 54.75 C12.4625 54.255 12.05 53.76 11.625 53.25 C10.92375 53.91 10.2225 54.57 9.5 55.25 C4.27831434 58.74777987 -2.39845146 57.94560779 -8.375 57.25 C-13.32830233 55.02955413 -15.88336914 52.04869646 -18.375 47.25 C-19.87702189 41.86684126 -19.44847017 37.48304376 -17.375 32.25 C-14.65458224 27.9750578 -12.06684762 26.10038035 -7.375 24.25 C-4.0717036 23.90217228 -0.81671299 23.96509653 2.5 24.0625 C3.37914062 24.07603516 4.25828125 24.08957031 5.1640625 24.10351562 C7.31797552 24.13863377 9.47157004 24.19243306 11.625 24.25 C11.39565591 22.33075213 11.14065657 20.4145594 10.875 18.5 C10.73578125 17.43265625 10.5965625 16.3653125 10.453125 15.265625 C9.48590025 11.74346695 8.57274909 10.38457693 5.625 8.25 C0.89081127 7.30316225 -3.81245452 7.2591175 -7.9375 9.875 C-9.58005948 12.58879392 -10.54171032 15.19460449 -11.375 18.25 C-13.685 17.92 -15.995 17.59 -18.375 17.25 C-18.25740075 10.66444192 -16.60085342 7.64023638 -12.1640625 2.81640625 C-8.54414916 -0.35299386 -4.60254379 0.05425395 0 0 Z M-10.375 34.25 C-11.96377137 37.42754275 -11.65008393 40.78394243 -11.375 44.25 C-10.20486774 47.6703866 -9.50189277 48.16540482 -6.375 50.25 C-0.69222643 51.01903631 4.08052774 51.37049948 8.8125 47.9375 C11.57613425 43.8396975 11.73951037 40.89946469 11.6875 36.0625 C11.67847656 34.97582031 11.66945313 33.88914062 11.66015625 32.76953125 C11.64855469 31.93808594 11.63695312 31.10664062 11.625 30.25 C8.8947611 30.1416333 6.16885457 30.06253306 3.4375 30 C2.66857422 29.96648437 1.89964844 29.93296875 1.10742188 29.8984375 C-4.00924943 29.81059765 -6.67455842 30.36992533 -10.375 34.25 Z " fill="#510E0E" transform="translate(981.375,1565.75)"/>
<path d="M0 0 C0.68481445 -0.01869141 1.36962891 -0.03738281 2.07519531 -0.05664062 C7.17458733 0.00737878 10.08041468 1.21737419 13.9375 4.5 C18.49929309 9.59047771 18.43908635 13.89943447 18.1875 20.375 C18.105 23.38625 18.0225 26.3975 17.9375 29.5 C8.0375 29.5 -1.8625 29.5 -12.0625 29.5 C-12.19680899 42.46344116 -12.19680899 42.46344116 -8.0625 48.5 C-3.8667019 50.59789905 1.37812703 50.04115341 5.9375 49.5 C9.48482025 46.77763795 9.82827603 45.05522185 10.6875 40.6875 C10.77 39.635625 10.8525 38.58375 10.9375 37.5 C13.2475 37.83 15.5575 38.16 17.9375 38.5 C18.30983816 43.15422701 18.40257989 46.55195253 16.3125 50.8125 C12.66157498 54.94380989 9.6454314 57.2637043 4.09765625 58.03125 C2.73183874 58.04839691 1.36541663 58.03726784 0 58 C-0.70930664 57.98646484 -1.41861328 57.97292969 -2.14941406 57.95898438 C-7.71945052 57.73752199 -10.93718922 57.25028253 -15.0625 53.5 C-19.86074224 46.4952668 -19.67763102 39.42549548 -19.58398438 31.23681641 C-19.56254254 29.00442887 -19.58384629 26.77525818 -19.609375 24.54296875 C-19.62429729 17.02171358 -19.44715639 10.90095823 -15.0625 4.5 C-10.45219852 0.30881684 -6.08476853 0.11611099 0 0 Z M-11.0625 12.5 C-12.73332039 15.46896279 -12.73332039 15.46896279 -12.0625 23.5 C-4.4725 23.5 3.1175 23.5 10.9375 23.5 C11.64106616 14.93280375 11.64106616 14.93280375 7.828125 8.50390625 C1.14662122 4.95608296 -6.79298986 6.31657152 -11.0625 12.5 Z " fill="#510E0E" transform="translate(1807.0625,1565.5)"/>
<path d="M0 0 C0.68481445 -0.01869141 1.36962891 -0.03738281 2.07519531 -0.05664062 C7.17458733 0.00737878 10.08041468 1.21737419 13.9375 4.5 C18.49929309 9.59047771 18.43908635 13.89943447 18.1875 20.375 C18.105 23.38625 18.0225 26.3975 17.9375 29.5 C8.0375 29.5 -1.8625 29.5 -12.0625 29.5 C-12.19680899 42.46344116 -12.19680899 42.46344116 -8.0625 48.5 C-3.8667019 50.59789905 1.37812703 50.04115341 5.9375 49.5 C9.48482025 46.77763795 9.82827603 45.05522185 10.6875 40.6875 C10.77 39.635625 10.8525 38.58375 10.9375 37.5 C13.2475 37.83 15.5575 38.16 17.9375 38.5 C18.30983816 43.15422701 18.40257989 46.55195253 16.3125 50.8125 C12.66157498 54.94380989 9.6454314 57.2637043 4.09765625 58.03125 C2.73183874 58.04839691 1.36541663 58.03726784 0 58 C-0.70930664 57.98646484 -1.41861328 57.97292969 -2.14941406 57.95898438 C-7.71945052 57.73752199 -10.93718922 57.25028253 -15.0625 53.5 C-19.86074224 46.4952668 -19.67763102 39.42549548 -19.58398438 31.23681641 C-19.56254254 29.00442887 -19.58384629 26.77525818 -19.609375 24.54296875 C-19.62429729 17.02171358 -19.44715639 10.90095823 -15.0625 4.5 C-10.45219852 0.30881684 -6.08476853 0.11611099 0 0 Z M-11.0625 12.5 C-12.73332039 15.46896279 -12.73332039 15.46896279 -12.0625 23.5 C-4.4725 23.5 3.1175 23.5 10.9375 23.5 C11.64106616 14.93280375 11.64106616 14.93280375 7.828125 8.50390625 C1.14662122 4.95608296 -6.79298986 6.31657152 -11.0625 12.5 Z " fill="#510E0E" transform="translate(1618.0625,1565.5)"/>
<path d="M0 0 C0.68481445 -0.01869141 1.36962891 -0.03738281 2.07519531 -0.05664062 C7.17458733 0.00737878 10.08041468 1.21737419 13.9375 4.5 C18.49929309 9.59047771 18.43908635 13.89943447 18.1875 20.375 C18.105 23.38625 18.0225 26.3975 17.9375 29.5 C8.0375 29.5 -1.8625 29.5 -12.0625 29.5 C-12.19680899 42.46344116 -12.19680899 42.46344116 -8.0625 48.5 C-3.8667019 50.59789905 1.37812703 50.04115341 5.9375 49.5 C9.48482025 46.77763795 9.82827603 45.05522185 10.6875 40.6875 C10.77 39.635625 10.8525 38.58375 10.9375 37.5 C13.2475 37.83 15.5575 38.16 17.9375 38.5 C18.30983816 43.15422701 18.40257989 46.55195253 16.3125 50.8125 C12.66157498 54.94380989 9.6454314 57.2637043 4.09765625 58.03125 C2.73183874 58.04839691 1.36541663 58.03726784 0 58 C-0.70930664 57.98646484 -1.41861328 57.97292969 -2.14941406 57.95898438 C-7.71945052 57.73752199 -10.93718922 57.25028253 -15.0625 53.5 C-19.86074224 46.4952668 -19.67763102 39.42549548 -19.58398438 31.23681641 C-19.56254254 29.00442887 -19.58384629 26.77525818 -19.609375 24.54296875 C-19.62429729 17.02171358 -19.44715639 10.90095823 -15.0625 4.5 C-10.45219852 0.30881684 -6.08476853 0.11611099 0 0 Z M-11.0625 12.5 C-12.73332039 15.46896279 -12.73332039 15.46896279 -12.0625 23.5 C-4.4725 23.5 3.1175 23.5 10.9375 23.5 C11.64106616 14.93280375 11.64106616 14.93280375 7.828125 8.50390625 C1.14662122 4.95608296 -6.79298986 6.31657152 -11.0625 12.5 Z " fill="#510E0E" transform="translate(1095.0625,1565.5)"/>
<path d="M0 0 C1.06287231 0.01426025 1.06287231 0.01426025 2.1472168 0.02880859 C8.11531301 0.26767051 11.01446049 1.23203912 15.0625 5.5625 C18.59528852 10.97592199 18.45680038 15.7531246 18.35546875 21.9921875 C18.35122391 22.98251984 18.34697906 23.97285217 18.34260559 24.99319458 C18.32587622 28.14157845 18.28823419 31.28931113 18.25 34.4375 C18.23494576 36.57811572 18.22125865 38.71874153 18.20898438 40.859375 C18.1759916 46.09397041 18.12584956 51.32818867 18.0625 56.5625 C16.125 56.25 16.125 56.25 14.0625 55.5625 C13.7325 54.5725 13.4025 53.5825 13.0625 52.5625 C12.43988281 53.10390625 12.43988281 53.10390625 11.8046875 53.65625 C6.21677252 57.86472153 1.25082228 58.31279936 -5.6484375 58.046875 C-10.21083276 57.37497831 -12.93610613 56.04559906 -15.9375 52.5625 C-19.71830128 47.44012407 -19.76044759 41.6980315 -18.9375 35.5625 C-16.48182448 30.56019802 -12.9404693 27.06398465 -7.9375 24.5625 C-6.48901418 24.47907841 -5.03679131 24.45517139 -3.5859375 24.46484375 C-2.73515625 24.46806641 -1.884375 24.47128906 -1.0078125 24.47460938 C0.32636719 24.48717773 0.32636719 24.48717773 1.6875 24.5 C2.5846875 24.50451172 3.481875 24.50902344 4.40625 24.51367188 C6.62506648 24.52547409 8.84375018 24.54193845 11.0625 24.5625 C10.88809211 19.58315483 10.66003627 15.01365951 8.75 10.375 C4.89294565 7.77373079 1.50352467 8.00180128 -3.0625 7.99609375 C-6.57962103 8.68900482 -7.7702331 9.75214222 -9.9375 12.5625 C-10.74065654 15.70731791 -10.74065654 15.70731791 -10.9375 18.5625 C-13.5775 18.2325 -16.2175 17.9025 -18.9375 17.5625 C-18.50166015 12.11450186 -17.42271211 8.80127149 -13.9375 4.5625 C-9.3896888 0.886688 -5.74025354 -0.12292342 0 0 Z M-10.9375 34.5625 C-12.63151391 39.64454173 -12.6308771 43.15006518 -10.25 48 C-7.40792082 51.0386495 -4.47365688 51.11594876 -0.4375 51.3125 C3.84332842 51.07009748 5.71583318 50.78489004 9.375 48.4375 C12.62331471 43.36816037 11.41599004 36.29689393 11.0625 30.5625 C8.3322611 30.4541333 5.60635457 30.37503306 2.875 30.3125 C2.10607422 30.27898437 1.33714844 30.24546875 0.54492188 30.2109375 C-4.54852955 30.12349627 -7.30100994 30.63650297 -10.9375 34.5625 Z " fill="#510E0E" transform="translate(1975.9375,1565.4375)"/>
<path d="M0 0 C0.70382812 -0.02900391 1.40765625 -0.05800781 2.1328125 -0.08789062 C7.29717375 -0.15028532 10.15147219 0.92649486 14.25 4.3125 C19.66963031 11.48984825 19.49692112 17.71800439 19.54516602 26.34399414 C19.55665085 27.7724806 19.57704736 29.20092533 19.60668945 30.62915039 C19.91368157 45.43165835 19.91368157 45.43165835 15.25 52.3125 C10.35793231 56.85513429 7.01152619 57.53747949 0.5 57.625 C-0.20382812 57.65400391 -0.90765625 57.68300781 -1.6328125 57.71289062 C-6.80583518 57.77538997 -9.62246925 56.66726868 -13.75 53.3125 C-19.87948651 46.68602809 -18.96667544 39.72510538 -18.99023438 31.15063477 C-18.99992126 29.01734135 -19.03096106 26.88502001 -19.0625 24.75195312 C-19.06903309 23.380214 -19.07428236 22.00846805 -19.078125 20.63671875 C-19.0874707 19.40010498 -19.09681641 18.16349121 -19.10644531 16.8894043 C-18.63973169 12.20596503 -17.39488041 8.17920907 -14.21484375 4.5703125 C-9.16866547 0.82762273 -6.1971249 0.08329469 0 0 Z M-10.75 12.3125 C-11.25117036 15.0373538 -11.45445211 17.12876441 -11.4140625 19.84375 C-11.41884613 20.55728638 -11.42362976 21.27082275 -11.42855835 22.00598145 C-11.4319481 23.50873022 -11.42281008 25.01155366 -11.40185547 26.51416016 C-11.37506783 28.80669475 -11.40162531 31.09433534 -11.43359375 33.38671875 C-11.43028948 34.85157324 -11.42388286 36.3164247 -11.4140625 37.78125 C-11.42418365 38.46159302 -11.43430481 39.14193604 -11.44473267 39.84289551 C-11.35153504 43.65202822 -10.81008531 45.23785685 -8.39208984 48.24169922 C-5.25800095 50.69811597 -3.69180999 50.98777819 0.25 50.9375 C1.260625 50.95039062 2.27125 50.96328125 3.3125 50.9765625 C7.32312467 50.06990533 8.68554924 48.49828175 11.25 45.3125 C11.75117036 42.5876462 11.95445211 40.49623559 11.9140625 37.78125 C11.91884613 37.06771362 11.92362976 36.35417725 11.92855835 35.61901855 C11.9319481 34.11626978 11.92281008 32.61344634 11.90185547 31.11083984 C11.87506783 28.81830525 11.90162531 26.53066466 11.93359375 24.23828125 C11.93028948 22.77342676 11.92388286 21.3085753 11.9140625 19.84375 C11.92924423 18.82323547 11.92924423 18.82323547 11.94473267 17.78210449 C11.85153504 13.97297178 11.31008531 12.38714315 8.89208984 9.38330078 C5.75800095 6.92688403 4.19180999 6.63722181 0.25 6.6875 C-0.760625 6.67460938 -1.77125 6.66171875 -2.8125 6.6484375 C-6.82312467 7.55509467 -8.18554924 9.12671825 -10.75 12.3125 Z " fill="#510E0E" transform="translate(1317.75,1565.6875)"/>
<path d="M0 0 C0.70382812 -0.02900391 1.40765625 -0.05800781 2.1328125 -0.08789062 C7.29717375 -0.15028532 10.15147219 0.92649486 14.25 4.3125 C19.66963031 11.48984825 19.49692112 17.71800439 19.54516602 26.34399414 C19.55665085 27.7724806 19.57704736 29.20092533 19.60668945 30.62915039 C19.91368157 45.43165835 19.91368157 45.43165835 15.25 52.3125 C10.35793231 56.85513429 7.01152619 57.53747949 0.5 57.625 C-0.20382812 57.65400391 -0.90765625 57.68300781 -1.6328125 57.71289062 C-6.80583518 57.77538997 -9.62246925 56.66726868 -13.75 53.3125 C-19.87948651 46.68602809 -18.96667544 39.72510538 -18.99023438 31.15063477 C-18.99992126 29.01734135 -19.03096106 26.88502001 -19.0625 24.75195312 C-19.06903309 23.380214 -19.07428236 22.00846805 -19.078125 20.63671875 C-19.0874707 19.40010498 -19.09681641 18.16349121 -19.10644531 16.8894043 C-18.63973169 12.20596503 -17.39488041 8.17920907 -14.21484375 4.5703125 C-9.16866547 0.82762273 -6.1971249 0.08329469 0 0 Z M-10.75 12.3125 C-11.25117036 15.0373538 -11.45445211 17.12876441 -11.4140625 19.84375 C-11.41884613 20.55728638 -11.42362976 21.27082275 -11.42855835 22.00598145 C-11.4319481 23.50873022 -11.42281008 25.01155366 -11.40185547 26.51416016 C-11.37506783 28.80669475 -11.40162531 31.09433534 -11.43359375 33.38671875 C-11.43028948 34.85157324 -11.42388286 36.3164247 -11.4140625 37.78125 C-11.42418365 38.46159302 -11.43430481 39.14193604 -11.44473267 39.84289551 C-11.35153504 43.65202822 -10.81008531 45.23785685 -8.39208984 48.24169922 C-5.25800095 50.69811597 -3.69180999 50.98777819 0.25 50.9375 C1.260625 50.95039062 2.27125 50.96328125 3.3125 50.9765625 C7.32312467 50.06990533 8.68554924 48.49828175 11.25 45.3125 C11.75117036 42.5876462 11.95445211 40.49623559 11.9140625 37.78125 C11.91884613 37.06771362 11.92362976 36.35417725 11.92855835 35.61901855 C11.9319481 34.11626978 11.92281008 32.61344634 11.90185547 31.11083984 C11.87506783 28.81830525 11.90162531 26.53066466 11.93359375 24.23828125 C11.93028948 22.77342676 11.92388286 21.3085753 11.9140625 19.84375 C11.92924423 18.82323547 11.92924423 18.82323547 11.94473267 17.78210449 C11.85153504 13.97297178 11.31008531 12.38714315 8.89208984 9.38330078 C5.75800095 6.92688403 4.19180999 6.63722181 0.25 6.6875 C-0.760625 6.67460938 -1.77125 6.66171875 -2.8125 6.6484375 C-6.82312467 7.55509467 -8.18554924 9.12671825 -10.75 12.3125 Z " fill="#510E0E" transform="translate(1244.75,1565.6875)"/>
<path d="M0 0 C5.012321 2.24690252 7.43493397 5.19100191 10 10 C10.53574586 13.55764919 10.46664098 17.0576282 10.390625 20.6484375 C10.38496521 21.66096588 10.37930542 22.67349426 10.37347412 23.71670532 C10.35116254 26.93662677 10.30097472 30.1554174 10.25 33.375 C10.22992831 35.56378596 10.21167871 37.75258944 10.1953125 39.94140625 C10.15131505 45.29465378 10.08445518 50.64724608 10 56 C7.69 56 5.38 56 3 56 C2.9906543 54.72358643 2.98130859 53.44717285 2.97167969 52.13208008 C2.93175661 47.38872598 2.86599097 42.64601888 2.79248047 37.90307617 C2.76428436 35.85172854 2.74306307 33.80027253 2.72900391 31.7487793 C2.70755576 28.79679946 2.66089552 25.8461207 2.609375 22.89453125 C2.60814636 21.97976517 2.60691772 21.06499908 2.60565186 20.12251282 C2.50966713 15.93376993 2.34559039 13.57259407 0.14160156 9.92089844 C-2.66573784 7.40286989 -4.2689326 7.35821482 -8 7.4375 C-9.546875 7.43556641 -9.546875 7.43556641 -11.125 7.43359375 C-14.62031836 8.12220946 -15.79117544 9.2645344 -18 12 C-19.13019427 14.26038854 -19.15268957 15.57118826 -19.20532227 18.08251953 C-19.22526749 18.92324005 -19.24521271 19.76396057 -19.26576233 20.63015747 C-19.28247482 21.53853363 -19.29918732 22.44690979 -19.31640625 23.3828125 C-19.33718735 24.31221649 -19.35796844 25.24162048 -19.37937927 26.19918823 C-19.44487646 29.1743821 -19.50376052 32.14966577 -19.5625 35.125 C-19.60568506 37.13933228 -19.64929934 39.15365541 -19.69335938 41.16796875 C-19.80055803 46.11188663 -19.90182501 51.05589503 -20 56 C-22.31 56 -24.62 56 -27 56 C-27 37.85 -27 19.7 -27 1 C-25.68 1 -24.36 1 -23 1 C-22.67 2.32 -22.34 3.64 -22 5 C-21.58492187 4.6390625 -21.16984375 4.278125 -20.7421875 3.90625 C-14.30116735 -0.94472752 -7.82791125 -1.01648848 0 0 Z " fill="#510E0E" transform="translate(1203,1566)"/>
<path d="M0 0 C2.31 0 4.62 0 7 0 C7.01458252 1.24612061 7.02916504 2.49224121 7.04418945 3.77612305 C7.102243 8.40759712 7.17947576 13.03858862 7.26245117 17.66967773 C7.29566727 19.67252764 7.32370952 21.6754704 7.34643555 23.6784668 C7.38004234 26.56078594 7.43236148 29.44225668 7.48828125 32.32421875 C7.49467117 33.21711105 7.5010611 34.11000336 7.50764465 35.029953 C7.6201206 39.8058745 7.86101012 43.14228968 11 47 C13.68046291 48.34023146 15.88330499 48.27990945 18.875 48.375 C19.92429687 48.42398437 20.97359375 48.47296875 22.0546875 48.5234375 C25.09983624 48.24802563 25.09983624 48.24802563 27.14599609 46.08569336 C29.75279063 41.74710024 29.6026925 38.08083463 29.609375 33.10546875 C29.62591125 32.15811356 29.64244751 31.21075836 29.65948486 30.23469543 C29.70793891 27.2188975 29.72933023 24.20360374 29.75 21.1875 C29.77816182 19.13864655 29.80808955 17.08981655 29.83984375 15.04101562 C29.91369737 10.02738526 29.96328801 5.01403435 30 0 C32.31 0 34.62 0 37 0 C37 18.15 37 36.3 37 55 C35.68 54.67 34.36 54.34 33 54 C32.67 53.34 32.34 52.68 32 52 C31.4225 52.28875 30.845 52.5775 30.25 52.875 C29.5075 53.24625 28.765 53.6175 28 54 C27.42378906 54.34546875 26.84757812 54.6909375 26.25390625 55.046875 C21.03117601 57.25544723 14.14291929 56.85617456 8.734375 55.3828125 C3.80467436 52.96082914 1.72981111 48.96759614 0 44 C-0.49972076 40.51517479 -0.46939401 37.1083079 -0.390625 33.59375 C-0.38496521 32.6284436 -0.37930542 31.66313721 -0.37347412 30.6685791 C-0.35123963 27.61186283 -0.30106775 24.55635672 -0.25 21.5 C-0.22991828 19.4166837 -0.21167045 17.33334887 -0.1953125 15.25 C-0.15141725 10.1662066 -0.08248003 5.08330785 0 0 Z " fill="#510E0E" transform="translate(1549,1567)"/>
<path d="M0 0 C0.68481445 -0.01869141 1.36962891 -0.03738281 2.07519531 -0.05664062 C7.15489095 0.00713151 10.02117897 1.34502562 13.9375 4.5 C17.83245857 8.90745312 18.33927695 12.09011326 18.078125 17.7421875 C18.03171875 18.32226562 17.9853125 18.90234375 17.9375 19.5 C15.6275 19.83 13.3175 20.16 10.9375 20.5 C10.82792969 19.88511719 10.71835938 19.27023437 10.60546875 18.63671875 C10.44691406 17.82847656 10.28835938 17.02023437 10.125 16.1875 C9.97417969 15.38699219 9.82335938 14.58648438 9.66796875 13.76171875 C8.8176781 11.12900066 8.21992478 10.06792659 5.9375 8.5 C3.10826395 7.9857431 3.10826395 7.9857431 0 8.0625 C-1.04027344 8.04316406 -2.08054687 8.02382812 -3.15234375 8.00390625 C-6.71127965 8.61059734 -7.83492766 9.72457924 -10.0625 12.5 C-12.16064417 16.69628834 -11.28938527 22.15034849 -11.30273438 26.76635742 C-11.31241423 28.79452939 -11.34342532 30.82167642 -11.375 32.84960938 C-11.38015625 34.13287109 -11.3853125 35.41613281 -11.390625 36.73828125 C-11.3999707 37.91430908 -11.40931641 39.09033691 -11.41894531 40.30200195 C-11.02687422 43.81963159 -10.17176601 45.68689644 -8.0625 48.5 C-3.8667019 50.59789905 1.37812703 50.04115341 5.9375 49.5 C9.48482025 46.77763795 9.82827603 45.05522185 10.6875 40.6875 C10.77 39.635625 10.8525 38.58375 10.9375 37.5 C13.2475 37.83 15.5575 38.16 17.9375 38.5 C18.30983816 43.15422701 18.40257989 46.55195253 16.3125 50.8125 C12.66157498 54.94380989 9.6454314 57.2637043 4.09765625 58.03125 C2.73183874 58.04839691 1.36541663 58.03726784 0 58 C-0.70930664 57.98646484 -1.41861328 57.97292969 -2.14941406 57.95898438 C-7.71945052 57.73752199 -10.93718922 57.25028253 -15.0625 53.5 C-19.86074224 46.4952668 -19.67763102 39.42549548 -19.58398438 31.23681641 C-19.56254254 29.00442887 -19.58384629 26.77525818 -19.609375 24.54296875 C-19.62429729 17.02171358 -19.44715639 10.90095823 -15.0625 4.5 C-10.45219852 0.30881684 -6.08476853 0.11611099 0 0 Z " fill="#510E0E" transform="translate(1145.0625,1565.5)"/>
<path d="M0 0 C2.64 0 5.28 0 8 0 C8 23.1 8 46.2 8 70 C17.57 70 27.14 70 37 70 C37 72.31 37 74.62 37 77 C24.79 77 12.58 77 0 77 C0 51.59 0 26.18 0 0 Z " fill="#510E0E" transform="translate(917,1545)"/>
<path d="M0 0 C0 4.95 0 9.9 0 15 C4.62 15 9.24 15 14 15 C14 17.31 14 19.62 14 22 C9.38 22 4.76 22 0 22 C0.06881235 27.21491148 0.15674623 32.42901615 0.26245117 37.64331055 C0.29571464 39.41730812 0.32374218 41.1914119 0.34643555 42.96557617 C0.37995602 45.51527176 0.43226865 48.06399292 0.48828125 50.61328125 C0.49467117 51.40712723 0.5010611 52.20097321 0.50764465 53.01887512 C0.58757656 57.25500121 0.58757656 57.25500121 2.37695312 60.9921875 C4.64024569 62.39755328 6.54411006 62.5158513 9.1875 62.6875 C10.08855469 62.75324219 10.98960938 62.81898437 11.91796875 62.88671875 C12.60503906 62.92410156 13.29210938 62.96148438 14 63 C14 65.31 14 67.62 14 70 C3.27216367 70.6249225 3.27216367 70.6249225 -1.5625 68.25 C-4.7609635 65.29757216 -6.62026479 63.13920563 -8 59 C-8.08518867 56.19573548 -8.1158852 53.4170365 -8.09765625 50.61328125 C-8.0962413 49.79627243 -8.09482635 48.97926361 -8.09336853 48.13749695 C-8.08777294 45.52912732 -8.07522129 42.92084366 -8.0625 40.3125 C-8.05748443 38.54362103 -8.05292162 36.77474072 -8.04882812 35.00585938 C-8.03780496 30.67053981 -8.02054338 26.33528448 -8 22 C-11.3 22 -14.6 22 -18 22 C-18 19.69 -18 17.38 -18 15 C-14.7 15 -11.4 15 -8 15 C-8 10.38 -8 5.76 -8 1 C-2 0 -2 0 0 0 Z " fill="#510E0E" transform="translate(1051,1552)"/>
<path d="M0 0 C2.31 0 4.62 0 7 0 C10.44085104 8.25171562 13.36420218 16.66777749 16.25 25.125 C16.71330897 26.47664228 17.17684911 27.82820535 17.640625 29.1796875 C18.7630775 32.45221801 19.88241753 35.72580267 21 39 C21.35304199 37.99622314 21.70608398 36.99244629 22.06982422 35.95825195 C23.38450608 32.22121993 24.7005899 28.4846829 26.01708984 24.74829102 C26.58582983 23.13351617 27.15419354 21.51860874 27.72216797 19.90356445 C28.54034248 17.57728369 29.35988526 15.25148881 30.1796875 12.92578125 C30.43185028 12.20787918 30.68401306 11.48997711 30.94381714 10.75032043 C32.22023964 7.13352231 33.5421663 3.54779861 35 0 C37.64 0 40.28 0 43 0 C36.96638141 18.44292748 30.54254231 36.73299028 24 55 C22.35 55 20.7 55 19 55 C14.93203276 44.2160841 10.92338055 33.41182704 6.99316406 22.5769043 C6.4056644 20.95995851 5.81608622 19.34376667 5.22460938 17.72827148 C4.35607519 15.35564992 3.4937481 12.9808564 2.6328125 10.60546875 C2.23450729 9.52279976 2.23450729 9.52279976 1.82815552 8.41825867 C0.76758496 5.4735471 0 3.15600014 0 0 Z " fill="#510E0E" transform="translate(1907,1567)"/>
<path d="M0 0 C0 4.95 0 9.9 0 15 C4.62 15 9.24 15 14 15 C14 17.31 14 19.62 14 22 C9.38 22 4.76 22 0 22 C0.06890702 27.05419674 0.1568874 32.10756854 0.26245117 37.16113281 C0.29567681 38.87978965 0.32371616 40.59855499 0.34643555 42.31738281 C0.38002561 44.79018323 0.43234178 47.26199156 0.48828125 49.734375 C0.49467117 50.50118591 0.5010611 51.26799683 0.50764465 52.05804443 C0.59633199 55.28598381 0.79445702 57.63002263 2.37695312 60.47851562 C4.59554077 62.55827468 6.18660688 62.59410945 9.1875 62.75 C10.53908203 62.83507813 10.53908203 62.83507813 11.91796875 62.921875 C12.94857422 62.96054688 12.94857422 62.96054688 14 63 C14 65.31 14 67.62 14 70 C3.31412104 70.62247839 3.31412104 70.62247839 -1.5625 68.3125 C-5.26785319 64.79716493 -7.14849416 61.99987819 -7.34057617 56.85229492 C-7.34010465 55.2282754 -7.32335986 53.60420395 -7.29296875 51.98046875 C-7.28872391 51.12189774 -7.28447906 50.26332672 -7.28010559 49.3787384 C-7.26336995 46.64800086 -7.22572766 43.91801288 -7.1875 41.1875 C-7.17244653 39.3313909 -7.15875928 37.47527018 -7.14648438 35.61914062 C-7.11348323 31.07914015 -7.06173659 26.53969698 -7 22 C-10.3 22 -13.6 22 -17 22 C-17 19.69 -17 17.38 -17 15 C-13.7 15 -10.4 15 -7 15 C-7 10.38 -7 5.76 -7 1 C-2 0 -2 0 0 0 Z " fill="#510E0E" transform="translate(1687,1552)"/>
<path d="M0 0 C2.64 0 5.28 0 8 0 C8 25.41 8 50.82 8 77 C5.36 77 2.72 77 0 77 C0 51.59 0 26.18 0 0 Z " fill="#510E0E" transform="translate(1840,1545)"/>
<path d="M0 0 C2.64 0 5.28 0 8 0 C8 25.41 8 50.82 8 77 C5.36 77 2.72 77 0 77 C0 51.59 0 26.18 0 0 Z " fill="#510E0E" transform="translate(1278,1545)"/>
<path d="M0 0 C2.64 0 5.28 0 8 0 C8 18.15 8 36.3 8 55 C5.36 55 2.72 55 0 55 C0 36.85 0 18.7 0 0 Z " fill="#510E0E" transform="translate(1401,1567)"/>
<path d="M0 0 C0.86882812 0.10441406 1.73765625 0.20882813 2.6328125 0.31640625 C0.99088573 2.01306391 -0.67724799 3.66786837 -2.3671875 5.31640625 C-3.14191406 6.08726563 -3.91664062 6.858125 -4.71484375 7.65234375 C-5.56949219 8.46960937 -6.42414063 9.286875 -7.3046875 10.12890625 C-8.52478516 11.31419922 -8.52478516 11.31419922 -9.76953125 12.5234375 C-12.88610367 14.67457545 -14.65819477 14.67812752 -18.3671875 14.31640625 C-14.30936185 3.88464441 -12.05370032 -0.84942183 0 0 Z " fill="#510E0E" transform="translate(1415.3671875,1544.68359375)"/>
</svg>
