<?xml version="1.0" encoding="UTF-8"?>
<svg version="1.1" xmlns="http://www.w3.org/2000/svg" width="2000" height="620">
<path d="M0 0 C8.57763083 7.83329096 9.21189078 19.41578119 9.89797974 30.40997314 C10.08636078 34.73907017 10.13719536 39.06486879 10.13623047 43.39770508 C10.14065798 45.61810144 10.17731895 47.83658567 10.21484375 50.05664062 C10.27748945 58.00479349 9.9791978 65.27538325 5.765625 72.2890625 C1.32166656 76.73302094 -2.40224338 77.46690506 -8.546875 77.6015625 C-14.04640736 77.52847901 -17.16418526 77.26234296 -21.234375 73.2890625 C-25.58791809 68.52737475 -28.81606094 63.36589776 -31.921875 57.7265625 C-45.47252948 33.22405513 -63.83294059 16.66882762 -90.8046875 8.51171875 C-111.27398647 3.6261892 -135.11637049 5.68807713 -153.546875 16.0390625 C-164.72673481 23.33108421 -173.13579321 32.04332324 -176.234375 45.2890625 C-177.29829179 57.89523931 -176.48589714 70.23157824 -168.0390625 80.359375 C-157.02726688 92.13389239 -144.59546755 98.132285 -129.234375 102.3515625 C-127.95027619 102.71548888 -126.66634826 103.08001858 -125.38256836 103.44506836 C-116.30801402 105.99845716 -107.18070558 108.34926075 -98.05078125 110.6953125 C-96.88388763 110.99561874 -95.71699402 111.29592499 -94.51473999 111.60533142 C-88.67175008 113.10700784 -82.82615099 114.59668949 -76.97460938 116.06469727 C-65.93505511 118.85745316 -55.02078902 121.85531071 -44.2109375 125.4453125 C-43.25405533 125.76278946 -42.29717316 126.08026642 -41.31129456 126.40736389 C-22.08782802 132.95616417 -5.96315489 142.24168524 8.765625 156.2890625 C9.66667969 157.07796875 9.66667969 157.07796875 10.5859375 157.8828125 C26.66068038 172.5369967 35.5794272 196.05142663 36.89111328 217.32421875 C38.30099082 248.55406905 26.96576263 278.54902937 6.765625 302.2890625 C6.02570313 303.17980469 5.28578125 304.07054687 4.5234375 304.98828125 C-0.81534075 311.19152359 -6.73114435 316.33731687 -13.234375 321.2890625 C-14.40226563 322.18044922 -14.40226563 322.18044922 -15.59375 323.08984375 C-34.23123515 336.69270623 -55.72197623 345.55865152 -78.234375 350.2890625 C-79.13752441 350.48516113 -80.04067383 350.68125977 -80.97119141 350.88330078 C-132.94798221 361.67393313 -193.29266674 355.16520689 -238.8125 326.90625 C-257.22652095 314.61043601 -277.2613388 298.07564946 -282.234375 275.2890625 C-282.49758789 272.20892708 -282.51116341 269.12930553 -282.546875 266.0390625 C-282.57587891 265.21792969 -282.60488281 264.39679688 -282.63476562 263.55078125 C-282.71848624 255.42344168 -279.82218936 249.20557182 -274.234375 243.2890625 C-268.26806025 238.64859547 -262.13072482 236.7634665 -254.625 236.98046875 C-244.71335707 238.25991285 -237.63919669 243.83320358 -231.6796875 251.515625 C-227.24575898 257.40925364 -223.08477007 263.48915718 -218.95141602 269.59545898 C-203.75629059 291.97479111 -182.88217407 304.91456271 -156.3984375 310.93359375 C-130.35146896 315.89322201 -101.94926575 313.82659258 -79.234375 299.2890625 C-66.98787705 290.91538869 -58.20808486 279.804694 -54.921875 265.1640625 C-52.90419371 252.82516537 -54.9187185 240.65123896 -62.234375 230.2890625 C-80.46633691 206.97365813 -122.44095018 203.17319078 -149.734375 197.7265625 C-170.34722376 193.60335363 -190.16648186 188.28021321 -209.234375 179.2890625 C-210.24467773 178.81581543 -210.24467773 178.81581543 -211.27539062 178.33300781 C-235.33123337 166.85235091 -254.74377576 147.37136049 -264.234375 122.2890625 C-273.55742519 95.47158284 -270.58373384 66.69148969 -258.3828125 41.37109375 C-242.7949263 10.30542752 -215.84646378 -10.81876016 -183.421875 -21.9609375 C-173.8707853 -25.08169329 -164.14433855 -27.11352246 -154.234375 -28.7109375 C-153.152771 -28.88882812 -153.152771 -28.88882812 -152.04931641 -29.0703125 C-105.33884527 -36.34143518 -38.67609727 -29.61561294 0 0 Z " fill="#510E0E" transform="translate(282.234375,34.7109375)"/>
<path d="M0 0 C8.32574937 7.37964149 8.98791329 17.94300066 9.75 28.4375 C9.90298816 32.73254113 9.93401707 37.0252563 9.95532227 41.32275391 C9.96522186 42.5726712 9.97512146 43.8225885 9.98532104 45.11038208 C10.01132352 48.5063705 10.0332606 51.90233774 10.05332303 55.29836321 C10.0753423 58.85911999 10.10265223 62.4198363 10.12937927 65.9805603 C10.1790924 72.7092388 10.2241096 79.43794003 10.26740164 86.16666257 C10.31695795 93.83303896 10.37180726 101.49937468 10.42708123 109.16571164 C10.54057262 124.92293677 10.64748184 140.68019942 10.75 156.4375 C11.43235718 155.95797379 12.11471436 155.47844757 12.81774902 154.98439026 C13.71513794 154.35475876 14.61252686 153.72512726 15.53710938 153.07641602 C16.42571655 152.4525148 17.31432373 151.82861359 18.2298584 151.18580627 C26.30131537 145.5863674 34.5069348 141.22073445 43.8125 138.0625 C44.50730469 137.82394287 45.20210937 137.58538574 45.91796875 137.33959961 C57.29924097 133.70814432 68.93931123 133.04693881 80.8125 133.0625 C81.82339188 133.06281723 81.82339188 133.06281723 82.85470581 133.06314087 C114.44663221 133.16156099 140.98200535 143.79318927 163.5 165.875 C168.58932758 171.00562628 173.03102969 176.20912739 176.75 182.4375 C177.73226562 184.08105469 177.73226562 184.08105469 178.734375 185.7578125 C196.97918144 217.5144271 199.08157048 257.3474219 189.93359375 292.3515625 C185.17538981 309.35260511 176.72020836 325.43537713 164.75 338.4375 C164.28110352 338.94877441 163.81220703 339.46004883 163.32910156 339.98681641 C136.75780542 368.63050167 98.42677506 385.14461459 59.421875 386.64233398 C54.82264071 386.76400835 50.22552261 386.77153333 45.625 386.75 C44.81429047 386.74817719 44.00358093 386.74635437 43.16830444 386.74447632 C30.50478887 386.69663772 18.15730642 386.18746146 5.75 383.4375 C4.98816406 383.27121094 4.22632813 383.10492188 3.44140625 382.93359375 C-13.91433617 378.98245509 -29.76803556 371.74570794 -44.25 361.4375 C-44.94351563 360.94894531 -45.63703125 360.46039063 -46.3515625 359.95703125 C-62.73445864 347.20231074 -69.82855744 325.83599214 -72.55377668 306.07204735 C-73.72622248 296.60567252 -73.5509708 287.08504604 -73.55297852 277.56201172 C-73.56065507 275.39372445 -73.56920432 273.22544013 -73.57855225 271.05715942 C-73.59672172 266.41657063 -73.60882957 261.77602124 -73.61609077 257.13540268 C-73.62765245 249.78790754 -73.6531406 242.44049934 -73.68040466 235.0930481 C-73.72193296 223.46782054 -73.7544028 211.84258867 -73.78287882 200.21732247 C-73.83395071 179.40348574 -73.89625685 158.58968624 -73.96821922 137.77591145 C-73.99302639 130.4812291 -74.01250898 123.18655797 -74.02760136 115.89184928 C-74.03785383 111.3460956 -74.0519998 106.80035958 -74.06707764 102.2546196 C-74.07319733 100.15729696 -74.07767654 98.05996874 -74.08033562 95.96263885 C-72.60881804 74.08648876 -72.60881804 74.08648876 -79.83984375 54.64453125 C-84.35468426 50.46207163 -89.46802079 47.26557041 -94.734375 44.11328125 C-98.42375939 41.65560127 -100.83276307 39.68921079 -102.25 35.4375 C-102.79642521 29.64539279 -101.81955967 26.98270462 -98.25 22.4375 C-88.4203518 15.46503423 -75.98033354 12.69248664 -64.52929688 9.57495117 C-61.51523762 8.75414958 -58.50739739 7.91320836 -55.5 7.06835938 C-46.49056581 4.55628087 -37.45907132 2.15670283 -28.33984375 0.07421875 C-27.64364929 -0.08817795 -26.94745483 -0.25057465 -26.23016357 -0.41789246 C-18.12969656 -2.20055311 -7.66690918 -3.76020387 0 0 Z M27.75 181.4375 C27.13382813 181.98535156 26.51765625 182.53320312 25.8828125 183.09765625 C15.57515051 192.80809319 10.17348181 206.85312341 9.60955811 220.94766235 C9.6027301 222.24191132 9.5959021 223.53616028 9.58886719 224.86962891 C9.58390228 225.58940414 9.57893738 226.30917938 9.57382202 227.05076599 C9.5592766 229.42187483 9.55240562 231.79291643 9.546875 234.1640625 C9.54404762 234.98310436 9.54122025 235.80214622 9.53830719 236.64600754 C9.52333356 240.99382597 9.51409678 245.34161147 9.50976562 249.68945312 C9.50540498 253.24652501 9.49160557 256.80335106 9.46875 260.36035156 C7.98145673 303.77381587 7.98145673 303.77381587 26.75 341.4375 C29.57674537 343.88198087 32.425319 345.74052741 35.75 347.4375 C36.389375 347.77523437 37.02875 348.11296875 37.6875 348.4609375 C46.72735225 352.30993709 59.59992594 351.88955174 68.8125 348.875 C84.02511629 342.22238798 93.09702656 328.6440546 99.14916992 313.77270508 C112.11689048 280.49999995 110.52969183 235.50138045 96.375 202.75 C90.2557654 189.33718258 81.74562328 177.98338474 67.75 172.4375 C54.18935437 167.91728479 38.07747342 172.11594932 27.75 181.4375 Z " fill="#510E0E" transform="translate(744.25,1.5625)"/>
<path d="M0 0 C1.00835757 -0.00384115 2.01671515 -0.00768229 3.05562901 -0.01163983 C4.72208506 -0.01034011 4.72208506 -0.01034011 6.42220688 -0.00901413 C7.59997782 -0.01198525 8.77774877 -0.01495637 9.99120975 -0.01801753 C13.26598063 -0.02520518 16.54071958 -0.02787742 19.81549716 -0.028615 C23.34526963 -0.03046457 26.87503071 -0.03801145 30.4047966 -0.04475021 C38.12591552 -0.05833841 45.84702926 -0.06435908 53.56815815 -0.06876087 C58.3886571 -0.07152262 63.20915405 -0.07575986 68.02965164 -0.08026505 C81.37425358 -0.09245862 94.71885391 -0.10275758 108.0634613 -0.10614014 C108.91773466 -0.1063597 109.77200801 -0.10657927 110.65216844 -0.10680549 C111.50849589 -0.10702377 112.36482334 -0.10724204 113.24710011 -0.10746694 C114.98236926 -0.1079104 116.71763841 -0.10835697 118.45290756 -0.10880661 C119.74404005 -0.10913875 119.74404005 -0.10913875 121.06125602 -0.10947761 C135.00789131 -0.11342543 148.95447435 -0.13087856 162.90108946 -0.15416613 C177.21734743 -0.17787809 191.53357917 -0.19034193 205.84985709 -0.19150805 C213.88891809 -0.19242493 221.92791102 -0.19818041 229.96695328 -0.21632767 C236.81269028 -0.23172659 243.65833818 -0.23685039 250.50408921 -0.22858956 C253.99660397 -0.22468222 257.48893927 -0.22561656 260.98143196 -0.23964691 C264.76905584 -0.2523061 268.5562174 -0.24652185 272.34383774 -0.23606491 C273.99690945 -0.24814952 273.99690945 -0.24814952 275.68337655 -0.26047826 C282.73058342 -0.21489471 288.21322343 0.21265096 293.42605209 5.41658401 C299.59481584 15.20491919 301.13609662 28.14429975 303.44948959 39.31892776 C303.8495018 41.20599442 303.8495018 41.20599442 304.25759506 43.13118362 C308.3542698 63.71017334 308.3542698 63.71017334 304.51198959 71.13142776 C301.53438735 74.89260955 298.48557824 77.95713344 294.13698959 80.13142776 C291.8914361 80.30704156 289.63894732 80.39879359 287.38698959 80.44392776 C285.56941147 80.50000198 285.56941147 80.50000198 283.71511459 80.55720901 C277.03777504 79.76263477 272.66500955 75.00418229 267.94948959 70.56892776 C267.38415512 70.04589066 266.81882065 69.52285355 266.23635483 68.98396683 C263.52260636 66.45413032 260.87412505 63.89264949 258.34011459 61.18220901 C244.24180131 46.22882051 226.42731143 39.75331575 206.04030991 39.0601387 C199.87340262 38.99388982 194.03970545 39.34514108 188.69948959 42.63142776 C184.64143259 49.12431896 184.84564487 57.64174502 184.88975143 65.08484268 C184.88612981 66.51042778 184.88612981 66.51042778 184.88243502 67.96481258 C184.87683748 71.12288039 184.88543184 74.28074234 184.89406967 77.43880081 C184.89299566 79.71507191 184.8910552 81.99134275 184.88831711 84.26761246 C184.88347896 90.43835356 184.89111643 96.60902206 184.90127015 102.7797544 C184.9100912 109.27017231 184.90829226 115.76058821 184.90790939 122.25101089 C184.90884573 133.17169289 184.91746236 144.09234657 184.93117905 155.01301956 C184.9451966 166.17936584 184.95235265 177.34568779 184.95168686 188.512043 C184.9516469 189.19681922 184.95160695 189.88159545 184.95156578 190.58712246 C184.95150525 191.612717 184.95150525 191.612717 184.95144349 192.65903062 C184.9507116 206.0944153 184.9577456 219.52978644 184.9668901 232.96516824 C184.96900093 236.79451623 184.96972851 240.62386231 184.97012901 244.45321083 C184.92899833 276.03718148 184.92899833 276.03718148 185.41174638 307.61622202 C185.45779487 309.49811339 185.49225698 311.38027761 185.52613926 313.26242733 C185.78736211 322.83529169 185.78736211 322.83529169 190.79323959 330.69783401 C191.40167709 331.02654495 192.01011459 331.35525589 192.63698959 331.69392776 C193.33308334 332.08838089 194.02917709 332.48283401 194.74636459 332.88924026 C196.4805476 333.79033536 198.22098989 334.67941686 199.96511459 335.56111526 C209.63054428 340.54889048 209.63054428 340.54889048 212.13698959 346.13142776 C213.54046639 351.54483825 213.14220751 355.98289526 211.13698959 361.13142776 C208.09206777 366.02505212 204.34566816 368.36537037 198.75224304 369.70077515 C196.19330187 370.12215485 193.82152278 370.26260293 191.23043442 370.27186966 C190.26893982 370.2775798 189.30744522 370.28328995 188.31681442 370.28917313 C187.27359528 370.29029099 186.23037613 370.29140884 185.15554428 370.29256058 C184.04761017 370.29752548 182.93967606 370.30249039 181.79816818 370.30760574 C178.13506065 370.32220327 174.47199643 370.32902547 170.80886459 370.33455276 C168.259243 370.34030629 165.70962142 370.346064 163.15999985 370.35182571 C158.49652329 370.36098732 153.83305968 370.36729034 149.16957641 370.37032247 C142.32402823 370.37479887 135.47868015 370.39233245 128.63319278 370.42132306 C122.68783696 370.44562008 116.74253049 370.45327045 110.79712296 370.45499802 C108.27582587 370.45801949 105.75452952 370.46603087 103.23326492 370.4791832 C99.70069472 370.49629535 96.16860821 370.49435048 92.63601303 370.48787308 C91.60089081 370.49708786 90.56576859 370.50630264 89.49927902 370.51579666 C82.00683681 370.47290226 75.76553224 369.26122453 69.26198959 365.44392776 C65.09642457 360.91081288 63.82326641 356.18202512 64.07448959 350.06892776 C64.92589586 344.60156397 66.64807264 341.41236375 71.13698959 338.13142776 C74.50745062 336.27539069 77.96319546 334.60307943 81.48684311 333.05867386 C85.79342852 331.11153396 88.23093257 329.6921024 90.13698959 325.13142776 C91.23657585 320.80279823 91.35163919 316.5016757 91.44749069 312.06035233 C91.46785696 311.25558433 91.48822323 310.45081633 91.50920665 309.62166142 C91.57474426 306.93474785 91.63250715 304.24774538 91.68899155 301.56062698 C91.70990628 300.61865959 91.73082101 299.67669219 91.75236952 298.70618033 C92.26263315 275.39733572 92.30157826 252.08867306 92.30424666 228.77519846 C92.30496946 225.20941934 92.30712565 221.64364381 92.30974388 218.0778656 C92.31889523 205.58774199 92.32308974 193.09762884 92.32229233 180.60750198 C92.32168662 169.03081349 92.33236026 157.45417084 92.34803599 145.87749398 C92.36112385 135.84932843 92.36647606 125.82117793 92.36583692 115.79300392 C92.36558333 109.84022433 92.36836044 103.88748619 92.37901497 97.93471527 C92.38872313 92.36429407 92.38875662 86.79395395 92.38149834 81.22352982 C92.38045757 79.19068024 92.38278495 77.15782551 92.3888588 75.12498474 C92.6045869 57.90526859 92.6045869 57.90526859 89.13698959 41.13142776 C74.09487476 35.66156783 54.99258878 40.44527632 41.00735092 46.71223831 C26.5311695 53.61800715 16.65426043 65.54525641 6.17605209 77.33845901 C1.26879307 82.61209711 -3.66615526 85.15607279 -10.92551041 85.50642776 C-18.69156324 84.76680369 -22.60287909 81.84297336 -27.48019791 76.06892776 C-31.47771397 70.46788831 -30.20238084 62.6404217 -29.19894791 56.18611526 C-28.89048565 54.45739632 -28.56966631 52.73084724 -28.23801041 51.00642776 C-28.06197281 50.07282425 -27.88593521 49.13922073 -27.70456314 48.1773262 C-26.28523474 40.8716922 -24.66953983 33.61604559 -22.92551041 26.38142776 C-22.69718521 25.40673538 -22.46886002 24.432043 -22.23361588 23.42781448 C-18.40003033 8.085568 -18.40003033 8.085568 -13.10300064 3.66145706 C-8.78331206 1.13094176 -4.94285068 0.00705773 0 0 Z " fill="#510E0E" transform="translate(1142.8630104064941,11.868572235107422)"/>
<path d="M0 0 C6.08784865 5.82315958 8.74455147 13.52266354 9.13307858 21.85347557 C9.13693349 22.90603853 9.1407884 23.95860149 9.14476013 25.0430603 C9.15165863 26.25672272 9.15855713 27.47038513 9.16566467 28.7208252 C9.16837908 30.05786118 9.17101626 31.39489732 9.17358398 32.73193359 C9.179894 34.14674074 9.1866603 35.56154592 9.19384766 36.97634888 C9.20849444 40.02048708 9.22022912 43.06461774 9.22979546 46.10877609 C9.24530144 50.93564136 9.26925491 55.76244211 9.29469299 60.58926392 C9.36573931 74.31451318 9.42545162 88.03980017 9.47680664 101.76513672 C9.50525324 109.3478722 9.54071588 116.93054417 9.58346039 124.5132128 C9.61001135 129.29680304 9.62805224 134.08032152 9.63949764 138.86397052 C9.64872705 141.86277299 9.66613637 144.86148961 9.68567657 147.86024094 C9.69652404 149.88143264 9.69789318 151.90266855 9.69880676 153.92388916 C9.81987186 169.39425271 10.58857446 186.50264075 21.421875 198.5859375 C27.16415831 204.19149978 34.48588707 206.0269509 42.375 206.375 C55.96633588 205.79251418 68.09617411 200.6211555 77.9921875 191.328125 C86.77216458 181.14745119 88.30708675 168.74860417 88.2746582 155.81811523 C88.27976913 154.74846527 88.28488007 153.67881531 88.29014587 152.57675171 C88.30395076 149.07064082 88.30309241 145.56472844 88.30078125 142.05859375 C88.30467225 139.60579862 88.30900776 137.15300417 88.31376648 134.70021057 C88.32120843 129.57200938 88.32095142 124.44387707 88.31567383 119.31567383 C88.30987207 112.75662955 88.32683742 106.19786699 88.3500185 99.63886929 C88.3647732 94.57813378 88.36562532 89.51746593 88.36250877 84.45671272 C88.36302078 82.03869123 88.36823581 79.62066584 88.37832069 77.20266533 C88.39070563 73.81908867 88.38388136 70.43605864 88.37231445 67.05249023 C88.37995819 66.06262619 88.38760193 65.07276215 88.39547729 64.05290222 C88.34406924 57.22304924 87.81556791 50.07657717 83.01953125 44.8359375 C82.29121094 44.35382813 81.56289063 43.87171875 80.8125 43.375 C80.02359375 42.81425781 79.2346875 42.25351563 78.421875 41.67578125 C77.22304688 40.84626953 77.22304688 40.84626953 76 40 C66.98603564 33.30084621 66.98603564 33.30084621 65.9921875 27.046875 C66.00658985 23.27345922 66.78643774 20.07200746 69 17 C74.06740062 12.8074064 78.95804787 10.60097018 85.1875 8.625 C86.07808105 8.33536377 86.96866211 8.04572754 87.88623047 7.74731445 C106.48833016 1.86071437 126.53364351 -4.34431482 146.1875 -4.375 C147.44336914 -4.41173828 147.44336914 -4.41173828 148.72460938 -4.44921875 C156.13326929 -4.48386564 161.28133595 -2.41659027 166.8125 2.5 C173.3875225 11.4030029 172.4341942 24.12076635 172.40063477 34.65380859 C172.40638945 36.29787186 172.41347717 37.94193092 172.42178345 39.58598328 C172.43680493 43.10368133 172.44267875 46.62122851 172.44125557 50.13895798 C172.43920712 55.71386758 172.45888789 61.2885771 172.48143005 66.86343384 C172.52227299 77.69617544 172.54097243 88.52890081 172.55760193 99.36170197 C172.58000255 113.14258756 172.61374022 126.92342607 172.66480106 140.70423567 C172.68458866 146.23326112 172.69429369 151.76218099 172.69575322 157.29124045 C172.69852586 160.74557718 172.70940418 164.19985663 172.72226334 167.65416908 C172.72650131 169.24149984 172.72743167 170.82884388 172.72458839 172.41617775 C171.90142406 189.346621 171.90142406 189.346621 177.1796875 204.6171875 C180.33661268 207.28439576 183.45936851 209.2497401 187.125 211.125 C192.53363905 213.92489838 196.01304194 216.03912583 198 222 C198.73056691 228.85056181 198.18454943 233.4582994 194 239 C188.87453244 242.84410067 184.34592294 243.12736895 178.06347656 243.17700195 C177.37348572 243.18357315 176.68349487 243.19014435 175.97259521 243.19691467 C173.69527057 243.21658058 171.41801169 243.22829576 169.140625 243.23828125 C167.96958851 243.24439454 167.96958851 243.24439454 166.77489471 243.25063133 C162.64192472 243.27146438 158.50898765 243.28577752 154.37597656 243.29516602 C150.12131623 243.30621945 145.86718044 243.34061455 141.61270523 243.38033772 C138.32858348 243.4065633 135.04458559 243.41486313 131.76036835 243.41844749 C130.19277151 243.42329881 128.62517967 243.43487111 127.05768585 243.45348549 C117.1522892 243.56379573 109.90233986 243.4566726 102.25 236.5 C97.71254026 230.49093169 96.08607906 222.2984513 95 215 C90.50190429 218.28657423 86.17584077 221.69595173 81.9375 225.3125 C57.30157649 245.52484608 28.40743073 251.72890721 -2.77734375 249.76171875 C-23.67398197 247.34775471 -43.40604635 238.02382417 -56.95703125 221.6328125 C-73.56848392 198.97754153 -74.27721238 172.99248939 -74.33552551 146.01328468 C-74.34393267 142.25026911 -74.36453686 138.48748282 -74.38806152 134.72453308 C-74.4399108 126.07571451 -74.47457657 117.42685831 -74.50782013 108.7779541 C-74.54104938 100.17328692 -74.58185396 91.56874701 -74.63594055 82.96417809 C-74.6559398 79.26441748 -74.6643088 75.56474769 -74.67224121 71.86494446 C-74.68521173 69.59851753 -74.69873176 67.33209365 -74.71289062 65.06567383 C-74.71190872 64.04378464 -74.71092682 63.02189545 -74.70991516 61.96903992 C-74.73004249 52.74604543 -74.73004249 52.74604543 -78.8828125 44.77734375 C-79.62273437 44.17019531 -80.36265625 43.56304687 -81.125 42.9375 C-82.32382812 41.93396484 -82.32382812 41.93396484 -83.546875 40.91015625 C-85.78430451 39.16795397 -88.06246373 37.51518776 -90.375 35.875 C-93.82083899 33.32837398 -95.6384117 31.16986416 -97 27 C-97.52985816 21.96634749 -97.1515831 18.99200526 -94 15 C-83.85127457 5.66783868 -68.91395396 4.19554976 -55.8125 1.3125 C-55.13044495 1.16202209 -54.44838989 1.01154419 -53.7456665 0.85650635 C-11.34511465 -8.43678272 -11.34511465 -8.43678272 0 0 Z " fill="#510E0E" transform="translate(437,139)"/>
<path d="M0 0 C1.15261826 0.00273422 1.15261826 0.00273422 2.32852173 0.00552368 C14.02776928 0.05219601 25.40764555 0.46688799 36.8125 3.3125 C37.49183594 3.47878906 38.17117188 3.64507812 38.87109375 3.81640625 C62.32443648 9.80166385 84.89427629 23.44460016 97.8125 44.3125 C104.36109779 58.2380385 106.53593771 74.38100939 102.1875 89.375 C93.87944141 111.96253428 76.23559268 125.22293458 55.17871094 135.23779297 C26.29296868 148.35737999 -5.52416293 152.05541993 -36.58105469 156.90472412 C-41.05482811 157.6046417 -45.52735148 158.31246744 -50 159.01953125 C-51.58983948 159.27061623 -53.17968279 159.52167694 -54.76953125 159.77270508 C-55.89746094 159.9508374 -57.02539062 160.12896973 -58.1875 160.3125 C-51.10552982 180.30865109 -41.74163257 196.69073426 -21.8359375 206.21484375 C-3.45226633 213.8340349 17.04125947 212.80105226 35.5 206.0625 C49.01408977 200.44690413 60.27565134 192.7840244 71.30859375 183.33203125 C71.88480469 182.83864258 72.46101563 182.34525391 73.0546875 181.83691406 C74.1508225 180.89168705 75.24112222 179.93963173 76.32421875 178.97949219 C82.24067851 173.82927496 87.96072581 171.11287862 95.8125 171.3125 C102.04441958 172.46283641 105.23352128 175.21516668 108.8125 180.3125 C110.7315887 184.15067739 110.35402319 188.42234262 109.19921875 192.453125 C99.31291881 216.66802705 73.55208159 232.33902287 50.4375 242.0625 C41.76105434 245.55850375 32.91741394 248.19345862 23.8125 250.3125 C23.131875 250.47766113 22.45125 250.64282227 21.75 250.81298828 C-0.57102887 256.00155437 -27.94500445 255.67391767 -50.1875 250.3125 C-50.91952637 250.14621094 -51.65155273 249.97992188 -52.40576172 249.80859375 C-85.29437445 242.19450977 -116.22404175 222.56626601 -134.44921875 193.828125 C-141.95457709 181.46378612 -146.78027534 168.58266636 -149.1875 154.3125 C-149.37183594 153.29929687 -149.55617188 152.28609375 -149.74609375 151.2421875 C-153.64108916 116.56638764 -145.57209653 83.04278297 -124.1875 55.3125 C-121.31812522 51.84255841 -118.30559282 48.55943964 -115.1875 45.3125 C-114.35605469 44.41789062 -113.52460937 43.52328125 -112.66796875 42.6015625 C-84.03162445 12.66547197 -40.52325921 -0.19990795 0 0 Z M-41.83984375 55.25 C-56.23690392 74.03085719 -63.80854798 101.68794495 -63.1875 125.3125 C-36.77049874 124.68758169 -6.40868904 116.02718348 12.8046875 97.37890625 C20.90205369 88.74287406 24.18758711 79.06141984 25.125 67.4375 C24.75041837 56.55259845 21.14188688 48.50163986 13.4375 41 C-5.76193984 28.65750296 -28.45591758 39.63895457 -41.83984375 55.25 Z " fill="#510E0E" transform="translate(1616.1875,134.6875)"/>
<path d="M0 0 C0.84626953 0.19867676 1.69253906 0.39735352 2.56445312 0.60205078 C25.30408184 6.1538804 49.75079836 15.00808458 62.74609375 35.72265625 C67.02441117 43.49293369 68.29619133 51.43730155 66.56640625 60.1953125 C64.123782 67.9328179 58.0339794 74.18992782 51 78 C41.45565642 81.21640882 29.56265422 81.90971547 20.28515625 77.43359375 C11.67592471 72.03258867 5.74780671 64.38476175 -0.34375 56.44140625 C-7.53894241 47.07158617 -15.51081726 37.50309755 -27.76171875 35.1953125 C-39.05194835 34.21012667 -47.5531532 37.05107301 -57 43 C-58.34712532 44.31939718 -59.68468224 45.64889129 -61 47 C-61.66 47 -62.32 47 -63 47 C-63.27328125 47.58007812 -63.5465625 48.16015625 -63.828125 48.7578125 C-64.98204568 50.96564739 -66.29094985 52.8590006 -67.75 54.875 C-77.24540463 69.08345218 -81.90101455 87.18370961 -84 104 C-84.11085938 104.81597656 -84.22171875 105.63195312 -84.3359375 106.47265625 C-87.29870571 132.37685938 -84.71943094 161.18689342 -68.72021484 182.72265625 C-58.51115408 195.37277035 -45.85756346 203.44254573 -29.625 205.8125 C-28.42875 205.874375 -27.2325 205.93625 -26 206 C-24.700625 206.0825 -23.40125 206.165 -22.0625 206.25 C-10.1853513 206.0650617 1.39430537 203.26534486 12 198 C12.92167969 197.55785156 13.84335938 197.11570312 14.79296875 196.66015625 C25.38670449 191.26616669 33.84728137 183.310458 42.39453125 175.1640625 C48.14982238 170.3838057 52.84585171 169.44925184 60.15234375 169.6484375 C64.03679909 170.12799989 66.17179268 171.31682895 69 174 C73.1012004 179.68844382 72.71627577 185.23159636 72 192 C67.40100865 209.07083229 50.11610108 221.88719959 35.59375 230.41259766 C-0.44144453 250.81285737 -40.76874685 256.61580638 -81.0625 245.875 C-100.01705783 240.43564343 -117.88437068 231.72322755 -133 219 C-133.79921875 218.33484375 -134.5984375 217.6696875 -135.421875 216.984375 C-156.50864716 198.77902512 -170.79684869 172.18842658 -173.83666992 144.35839844 C-176.29288632 108.89195531 -169.92906574 71.0955779 -145.9375 43.3515625 C-143.05045765 40.14082831 -140.037604 37.0680235 -137 34 C-136.09701172 33.00613281 -136.09701172 33.00613281 -135.17578125 31.9921875 C-103.26470094 -2.57145113 -43.66227152 -10.2523435 0 0 Z " fill="#510E0E" transform="translate(1928,138)"/>
<path d="M0 0 C0.67289063 -0.020625 1.34578125 -0.04125 2.0390625 -0.0625 C8.36081316 -0.11131661 12.82392853 1.42817272 17.6875 5.5 C29.6833556 19.76534179 28.1454239 41.32806558 28.15771484 58.99511719 C28.16239644 60.52921185 28.16754216 62.06330515 28.17311096 63.59739685 C28.18429224 66.87331763 28.19277328 70.14922984 28.19923019 73.42516327 C28.21000982 78.61227196 28.23027584 83.79931777 28.25234985 88.98638916 C28.31395572 103.72673688 28.36833465 118.46707783 28.40136719 133.20751953 C28.41973691 141.36965717 28.44868956 149.5316862 28.4893719 157.69374394 C28.51037715 162.00252945 28.52589021 166.31117861 28.52817917 170.62001801 C28.53033308 174.66840885 28.54627765 178.71651437 28.57256889 182.76481819 C28.5797311 184.24458554 28.58187788 185.72438757 28.57846642 187.20416832 C28.23825237 200.29687508 28.23825237 200.29687508 34.125 211.4375 C35.07375 212.035625 36.0225 212.63375 37 213.25 C38.54429993 214.26684538 40.08576253 215.28800753 41.625 216.3125 C42.38039063 216.79847656 43.13578125 217.28445313 43.9140625 217.78515625 C47.14528956 220.05427637 48.73496325 221.45488974 50 225.25 C50.3684431 230.86875724 50.19190228 234.40711379 47 239.25 C40.89781255 245.18726346 34.43128967 245.54709148 26.35791016 245.5246582 C24.9274662 245.5323246 24.9274662 245.5323246 23.46812439 245.54014587 C20.32503938 245.55401189 17.18217441 245.55308725 14.0390625 245.55078125 C11.84719766 245.55466998 9.65533357 245.55900501 7.46347046 245.56376648 C2.87210649 245.57122238 -1.71918058 245.57094206 -6.31054688 245.56567383 C-12.18376403 245.5598818 -18.05666556 245.57680702 -23.92983055 245.6000185 C-28.45610382 245.61477672 -32.98230145 245.61562465 -37.50859451 245.61250877 C-39.67345428 245.61302099 -41.8383184 245.61823996 -44.00315475 245.62832069 C-47.0353499 245.64070729 -50.06693513 245.63387971 -53.09912109 245.62231445 C-54.43042305 245.63378006 -54.43042305 245.63378006 -55.78862 245.64547729 C-62.83656554 245.58629513 -68.46548637 244.4609587 -73.9375 239.6875 C-77.47744789 235.50392522 -77.35250594 232.36035068 -77.26171875 227.00390625 C-76.87666267 222.95219679 -75.84863152 221.16645608 -73 218.25 C-70.52128079 216.6281736 -67.99299104 215.14823461 -65.4140625 213.69140625 C-61.98034762 211.64117844 -58.69012409 209.39379545 -57.41340637 205.42781067 C-54.96326595 192.52055448 -55.83620502 178.8380367 -55.83203125 165.76953125 C-55.8288109 163.38742554 -55.82544627 161.00532003 -55.82194519 158.62321472 C-55.81598164 153.64488263 -55.81410242 148.66656783 -55.81469727 143.68823242 C-55.81479872 137.35554603 -55.80115156 131.02297217 -55.78392506 124.69031239 C-55.77272569 119.773346 -55.77078048 114.85640615 -55.77130699 109.93942833 C-55.77013861 107.60699768 -55.76578224 105.27456608 -55.75797462 102.94214821 C-55.72565262 92.28962449 -55.73391252 81.66503087 -56.7644043 71.0534668 C-56.82522344 70.34152318 -56.88604258 69.62957956 -56.94870472 68.8960619 C-57.57198145 63.48827068 -59.52749519 59.4214276 -63.64404297 55.80615234 C-64.17143066 55.48598145 -64.69881836 55.16581055 -65.2421875 54.8359375 C-65.83386719 54.46726563 -66.42554688 54.09859375 -67.03515625 53.71875 C-67.64230469 53.3578125 -68.24945312 52.996875 -68.875 52.625 C-70.08099665 51.88324722 -71.28672818 51.1410632 -72.4921875 50.3984375 C-73.07758301 50.04209229 -73.66297852 49.68574707 -74.26611328 49.31860352 C-85.20303634 42.57812024 -85.20303634 42.57812024 -86.48828125 37.2109375 C-86.88999143 32.62671549 -86.09538584 29.69401933 -83.25 26.0625 C-74.69731918 17.73151064 -62.76368226 14.61777251 -51.59277344 11.31738281 C-49.26401849 10.62914302 -46.94040471 9.92543204 -44.6171875 9.21875 C-14.45410236 0.11075941 -14.45410236 0.11075941 0 0 Z " fill="#510E0E" transform="translate(1052,136.75)"/>
<path d="M0 0 C218.13 0 436.26 0 661 0 C661 9.24 661 18.48 661 28 C442.87 28 224.74 28 0 28 C0 18.76 0 9.52 0 0 Z " fill="#CB6532" transform="translate(0,547)"/>
<path d="M0 0 C6.71899018 6.22230918 11.24663676 14.56216743 12.0234375 23.703125 C12.19975659 32.08215689 12.03290609 39.32603036 7.6875 46.75 C7.28660156 47.44222656 6.88570312 48.13445312 6.47265625 48.84765625 C-0.81394776 59.80924315 -13.58424137 66.03176717 -26.0625 69.0625 C-41.83395178 71.69529452 -57.89956041 69.8509279 -71.3125 60.75 C-79.30600016 54.78060503 -85.46990355 47.83008648 -87.3125 37.75 C-88.19231644 24.81237132 -87.01388657 14.11629825 -78.34765625 3.8125 C-57.80828732 -17.00282974 -22.38482142 -18.0097994 0 0 Z " fill="#510E0E" transform="translate(1069.3125,38.25)"/>
<path d="M0 0 C1.09675095 0.83686866 2.18316715 1.68781178 3.25 2.5625 C3.91 2.8925 4.57 3.2225 5.25 3.5625 C5.86875 2.325 5.86875 2.325 6.5 1.0625 C7.36625 -0.175 7.36625 -0.175 8.25 -1.4375 C9.57 -1.4375 10.89 -1.4375 12.25 -1.4375 C12.33755672 2.91653865 12.39057969 7.27034877 12.4375 11.625 C12.46263672 12.85412109 12.48777344 14.08324219 12.51367188 15.34960938 C12.57939735 23.47766014 11.82227855 28.30834701 7.625 35.25 C0.92956292 41.76924137 -6.71126553 42.06059119 -15.62939453 42.23535156 C-20.16324494 42.12752496 -20.16324494 42.12752496 -23.75 44.5625 C-23.65304884 48.90444936 -23.65304884 48.90444936 -21.75 52.5625 C-19.73984316 52.65751792 -17.72917948 52.74653663 -15.7175293 52.80151367 C0.65209681 53.28902307 0.65209681 53.28902307 6.85546875 59.0546875 C11.30704528 64.06738713 11.54544358 68.42583234 11.4609375 74.83984375 C11.05527391 80.07590897 9.12074904 82.71110094 5.4375 86.3125 C-1.24614623 91.03036793 -7.76204456 91.26037245 -15.75 90.5625 C-20.42813796 89.4014404 -24.35452503 86.95797497 -27.75 83.5625 C-30.73830483 78.3072053 -31.60514301 73.49437806 -30.75 67.5625 C-29.79605164 65.54012948 -28.80464649 63.5342304 -27.75 61.5625 C-27.9154482 58.83260473 -28.65724947 57.6849307 -30.3125 55.5 C-32.48717765 51.0560935 -32.4892771 46.42578368 -31.75 41.5625 C-30.78583539 40.2030279 -29.79115841 38.86394802 -28.75 37.5625 C-29.35180488 35.2139482 -29.35180488 35.2139482 -30.75 32.5625 C-33.79406977 25.05477023 -35.17639591 18.23162427 -32.5625 10.375 C-30.35810047 5.22798341 -27.60827214 1.74863115 -22.8125 -1.3125 C-15.6918693 -3.90465942 -6.48539209 -4.09042097 0 0 Z M-22.75 9.5625 C-25.82038778 14.44720783 -25.59101037 20.00893151 -24.75 25.5625 C-22.89770593 29.11072565 -20.6825592 31.90136133 -16.8203125 33.22265625 C-10.53082194 34.25508206 -5.20361396 34.19824264 0.25 30.5625 C3.56168042 27.15574741 3.70989501 24.34970504 3.75 19.6875 C3.68137259 13.77783064 3.68137259 13.77783064 0.9375 8.75 C-5.73333168 3.32025328 -16.53565213 3.67522307 -22.75 9.5625 Z M-21.75 66.75 C-23.11806653 70.59768711 -23.09332375 73.69437498 -21.75 77.5625 C-18.0794002 81.32969453 -15.17587776 82.46899982 -9.9375 82.8125 C-4.98990635 82.73974127 -1.51254991 81.20754659 2.125 77.8125 C3.77016849 74.52216302 3.69565624 72.19141507 3.25 68.5625 C1.3106733 65.20597301 -0.09801116 63.86014708 -3.625 62.25 C-10.5270759 60.7315433 -16.720635 61.24913203 -21.75 66.75 Z " fill="#510E0E" transform="translate(1263.75,529.4375)"/>
<path d="M0 0 C0.66 0.66 1.32 1.32 2 2 C2.86625 0.7625 2.86625 0.7625 3.75 -0.5 C4.4925 -1.325 5.235 -2.15 6 -3 C7.32 -3 8.64 -3 10 -3 C10 27.36 10 57.72 10 89 C7.03 89 4.06 89 1 89 C0.67 79.43 0.34 69.86 0 60 C-2.64 61.32 -5.28 62.64 -8 64 C-14.43542996 65.09402309 -20.64381851 64.62281544 -26.31640625 61.26171875 C-31.44146872 57.42089467 -33.54304098 53.23372905 -35 47 C-35.19215245 44.34932095 -35.30431647 41.80741135 -35.30078125 39.16015625 C-35.30506638 38.43436874 -35.3093515 37.70858124 -35.31376648 36.96080017 C-35.31947382 35.43554725 -35.32003678 33.91026713 -35.31567383 32.38500977 C-35.31251291 30.07194912 -35.33601961 27.76016878 -35.36132812 25.44726562 C-35.39978894 16.57390134 -35.20475931 9.11497296 -29.75 1.6875 C-21.34117089 -6.53021936 -9.57181658 -6.02669933 0 0 Z M-24 8 C-26.56462383 11.71134385 -26.32300491 15.70834131 -26.3359375 20.0546875 C-26.3425943 20.83385529 -26.3492511 21.61302307 -26.35610962 22.415802 C-26.36621741 24.06151984 -26.37092722 25.7072785 -26.37060547 27.35302734 C-26.37497342 29.85974323 -26.41129517 32.36468978 -26.44921875 34.87109375 C-26.45508856 36.47395235 -26.45905685 38.07681926 -26.4609375 39.6796875 C-26.47530853 40.42362762 -26.48967957 41.16756775 -26.50448608 41.93405151 C-26.45952865 47.10239013 -25.24925294 50.01469489 -22 54 C-17.60036741 57.10667934 -12.15024314 56.61117212 -7 56 C-2.87277644 53.97259194 -0.58124439 52.30109139 1 48 C1.21567213 45.2803563 1.32784341 42.6655484 1.3359375 39.9453125 C1.3425943 39.16614471 1.3492511 38.38697693 1.35610962 37.584198 C1.36621741 35.93848016 1.37092722 34.2927215 1.37060547 32.64697266 C1.37497342 30.14025677 1.41129517 27.63531022 1.44921875 25.12890625 C1.45508856 23.52604765 1.45905685 21.92318074 1.4609375 20.3203125 C1.47530853 19.57637238 1.48967957 18.83243225 1.50448608 18.06594849 C1.45952865 12.89760987 0.24925294 9.98530511 -3 6 C-9.3042358 1.54843758 -18.59110454 3.00717342 -24 8 Z " fill="#510E0E" transform="translate(1442,531)"/>
<path d="M0 0 C5.20224422 4.15922001 6.66678325 7.57202263 8.578125 14.26171875 C8.578125 20.20171875 8.578125 26.14171875 8.578125 32.26171875 C-3.301875 32.26171875 -15.181875 32.26171875 -27.421875 32.26171875 C-27.82506529 47.798104 -27.82506529 47.798104 -23.421875 54.26171875 C-18.99614791 57.35879204 -13.58832408 56.75996681 -8.421875 56.26171875 C-5.4065645 55.03097977 -4.07910052 54.1489732 -2.171875 51.57421875 C-1.06769218 48.16965507 -0.77792107 44.82217942 -0.421875 41.26171875 C2.548125 41.92171875 5.518125 42.58171875 8.578125 43.26171875 C8.10099506 51.01508022 6.97536796 56.03869338 1.140625 61.57421875 C-5.91274535 66.21912118 -13.27070781 65.9546979 -21.421875 65.26171875 C-27.38612915 63.67365713 -31.05059416 60.31864001 -34.421875 55.26171875 C-36.15440725 50.27067417 -36.72965971 45.66622904 -36.72265625 40.421875 C-36.72694138 39.69608749 -36.7312265 38.97029999 -36.73564148 38.22251892 C-36.74134882 36.697266 -36.74191178 35.17198588 -36.73754883 33.64672852 C-36.73438791 31.33366787 -36.75789461 29.02188753 -36.78320312 26.70898438 C-36.82166394 17.83562009 -36.62663431 10.37669171 -31.171875 2.94921875 C-23.39619198 -4.6497442 -9.34295645 -5.78857084 0 0 Z M-25.421875 9.26171875 C-28.31630219 14.30521714 -28.31630219 14.30521714 -27.421875 25.26171875 C-18.511875 25.26171875 -9.601875 25.26171875 -0.421875 25.26171875 C0.38636758 14.5649492 0.38636758 14.5649492 -4.421875 7.26171875 C-11.05696918 3.12555615 -19.7703452 4.04492201 -25.421875 9.26171875 Z " fill="#510E0E" transform="translate(943.421875,529.73828125)"/>
<path d="M0 0 C5.53863029 2.59098803 8.98467295 6.73299642 11.3125 12.27734375 C11.53955078 14.75097656 11.53955078 14.75097656 11.5078125 17.48046875 C11.50281738 18.36379883 11.49782227 19.24712891 11.49267578 20.15722656 C11.47446777 21.26936523 11.45625977 22.38150391 11.4375 23.52734375 C11.39625 27.07484375 11.355 30.62234375 11.3125 34.27734375 C-0.2375 34.27734375 -11.7875 34.27734375 -23.6875 34.27734375 C-23.605 37.14421875 -23.5225 40.01109375 -23.4375 42.96484375 C-23.42170898 43.85905029 -23.40591797 44.75325684 -23.38964844 45.67456055 C-23.17451936 50.72273429 -22.57060533 53.68476272 -18.6875 57.27734375 C-13.20639428 59.10437899 -7.02252099 59.18276005 -1.625 57.08984375 C2.43995186 53.28714684 2.68470985 48.61356005 3.3125 43.27734375 C10.1875 44.15234375 10.1875 44.15234375 11.3125 45.27734375 C12.23147642 51.27694692 11.28480146 55.59880587 7.8125 60.55078125 C3.94393514 65.00366059 -0.39524198 67.0988587 -6.19921875 67.55078125 C-19.70024428 68.01214723 -19.70024428 68.01214723 -25.2109375 63.703125 C-30.02643125 59.05324346 -32.47956313 55.08938419 -32.97802734 48.34838867 C-33.00460384 46.81835255 -33.01907275 45.2880732 -33.0234375 43.7578125 C-33.0300943 42.94041092 -33.0367511 42.12300934 -33.04360962 41.28083801 C-33.05370878 39.55533081 -33.05842749 37.82978477 -33.05810547 36.10424805 C-33.06246886 33.48354635 -33.0987883 30.86454366 -33.13671875 28.24414062 C-33.14258973 26.56120362 -33.14655724 24.87825869 -33.1484375 23.1953125 C-33.16280853 22.42108444 -33.17717957 21.64685638 -33.19198608 20.84916687 C-33.14099012 14.68278632 -31.55958421 9.31544071 -27.24008179 4.7462616 C-19.60256027 -1.86479204 -9.64209471 -2.59271442 0 0 Z M-20.6875 10.27734375 C-24.9875 15.17734375 -24.9875 15.17734375 -23.6875 27.27734375 C-14.7775 27.27734375 -5.8675 27.27734375 3.3125 27.27734375 C3.91781347 17.66872175 3.91781347 17.66872175 0.3125 10.27734375 C-3.60820173 6.60168588 -7.97906042 6.83704043 -13.09375 6.98828125 C-16.33714623 7.34974408 -18.22796991 8.12525492 -20.6875 10.27734375 Z " fill="#510E0E" transform="translate(1869.6875,527.72265625)"/>
<path d="M0 0 C5.53863029 2.59098803 8.98467295 6.73299642 11.3125 12.27734375 C11.53955078 14.75097656 11.53955078 14.75097656 11.5078125 17.48046875 C11.50281738 18.36379883 11.49782227 19.24712891 11.49267578 20.15722656 C11.47446777 21.26936523 11.45625977 22.38150391 11.4375 23.52734375 C11.39625 27.07484375 11.355 30.62234375 11.3125 34.27734375 C-0.2375 34.27734375 -11.7875 34.27734375 -23.6875 34.27734375 C-23.605 37.14421875 -23.5225 40.01109375 -23.4375 42.96484375 C-23.42170898 43.85905029 -23.40591797 44.75325684 -23.38964844 45.67456055 C-23.17451936 50.72273429 -22.57060533 53.68476272 -18.6875 57.27734375 C-13.20639428 59.10437899 -7.02252099 59.18276005 -1.625 57.08984375 C2.43995186 53.28714684 2.68470985 48.61356005 3.3125 43.27734375 C10.1875 44.15234375 10.1875 44.15234375 11.3125 45.27734375 C12.23147642 51.27694692 11.28480146 55.59880587 7.8125 60.55078125 C3.94393514 65.00366059 -0.39524198 67.0988587 -6.19921875 67.55078125 C-19.70024428 68.01214723 -19.70024428 68.01214723 -25.2109375 63.703125 C-30.02643125 59.05324346 -32.47956313 55.08938419 -32.97802734 48.34838867 C-33.00460384 46.81835255 -33.01907275 45.2880732 -33.0234375 43.7578125 C-33.0300943 42.94041092 -33.0367511 42.12300934 -33.04360962 41.28083801 C-33.05370878 39.55533081 -33.05842749 37.82978477 -33.05810547 36.10424805 C-33.06246886 33.48354635 -33.0987883 30.86454366 -33.13671875 28.24414062 C-33.14258973 26.56120362 -33.14655724 24.87825869 -33.1484375 23.1953125 C-33.16280853 22.42108444 -33.17717957 21.64685638 -33.19198608 20.84916687 C-33.14099012 14.68278632 -31.55958421 9.31544071 -27.24008179 4.7462616 C-19.60256027 -1.86479204 -9.64209471 -2.59271442 0 0 Z M-20.6875 10.27734375 C-24.9875 15.17734375 -24.9875 15.17734375 -23.6875 27.27734375 C-14.7775 27.27734375 -5.8675 27.27734375 3.3125 27.27734375 C3.91781347 17.66872175 3.91781347 17.66872175 0.3125 10.27734375 C-3.60820173 6.60168588 -7.97906042 6.83704043 -13.09375 6.98828125 C-16.33714623 7.34974408 -18.22796991 8.12525492 -20.6875 10.27734375 Z " fill="#510E0E" transform="translate(1781.6875,527.72265625)"/>
<path d="M0 0 C5.53863029 2.59098803 8.98467295 6.73299642 11.3125 12.27734375 C11.53955078 14.75097656 11.53955078 14.75097656 11.5078125 17.48046875 C11.50281738 18.36379883 11.49782227 19.24712891 11.49267578 20.15722656 C11.47446777 21.26936523 11.45625977 22.38150391 11.4375 23.52734375 C11.39625 27.07484375 11.355 30.62234375 11.3125 34.27734375 C-0.2375 34.27734375 -11.7875 34.27734375 -23.6875 34.27734375 C-23.605 37.14421875 -23.5225 40.01109375 -23.4375 42.96484375 C-23.42170898 43.85905029 -23.40591797 44.75325684 -23.38964844 45.67456055 C-23.17451936 50.72273429 -22.57060533 53.68476272 -18.6875 57.27734375 C-13.20639428 59.10437899 -7.02252099 59.18276005 -1.625 57.08984375 C2.43995186 53.28714684 2.68470985 48.61356005 3.3125 43.27734375 C10.1875 44.15234375 10.1875 44.15234375 11.3125 45.27734375 C12.23147642 51.27694692 11.28480146 55.59880587 7.8125 60.55078125 C3.94393514 65.00366059 -0.39524198 67.0988587 -6.19921875 67.55078125 C-19.70024428 68.01214723 -19.70024428 68.01214723 -25.2109375 63.703125 C-30.02643125 59.05324346 -32.47956313 55.08938419 -32.97802734 48.34838867 C-33.00460384 46.81835255 -33.01907275 45.2880732 -33.0234375 43.7578125 C-33.0300943 42.94041092 -33.0367511 42.12300934 -33.04360962 41.28083801 C-33.05370878 39.55533081 -33.05842749 37.82978477 -33.05810547 36.10424805 C-33.06246886 33.48354635 -33.0987883 30.86454366 -33.13671875 28.24414062 C-33.14258973 26.56120362 -33.14655724 24.87825869 -33.1484375 23.1953125 C-33.16280853 22.42108444 -33.17717957 21.64685638 -33.19198608 20.84916687 C-33.14099012 14.68278632 -31.55958421 9.31544071 -27.24008179 4.7462616 C-19.60256027 -1.86479204 -9.64209471 -2.59271442 0 0 Z M-20.6875 10.27734375 C-24.9875 15.17734375 -24.9875 15.17734375 -23.6875 27.27734375 C-14.7775 27.27734375 -5.8675 27.27734375 3.3125 27.27734375 C3.91781347 17.66872175 3.91781347 17.66872175 0.3125 10.27734375 C-3.60820173 6.60168588 -7.97906042 6.83704043 -13.09375 6.98828125 C-16.33714623 7.34974408 -18.22796991 8.12525492 -20.6875 10.27734375 Z " fill="#510E0E" transform="translate(1692.6875,527.72265625)"/>
<path d="M0 0 C5.16319435 3.19893563 8.40684982 7.25510982 9.9911499 13.21072388 C10.7992497 17.76706267 10.61533114 22.3838794 10.5703125 26.99609375 C10.5674826 28.09599136 10.56465271 29.19588898 10.56173706 30.32911682 C10.5505898 33.82369103 10.52549498 37.31800394 10.5 40.8125 C10.48996316 43.18944941 10.48083854 45.56640286 10.47265625 47.94335938 C10.45066831 53.7539946 10.4172451 59.56447862 10.375 65.375 C5.6015625 64.6328125 5.6015625 64.6328125 3.5625 62.3125 C2.9746875 61.3534375 2.9746875 61.3534375 2.375 60.375 C1.90449219 60.72433594 1.43398437 61.07367187 0.94921875 61.43359375 C0.32660156 61.88863281 -0.29601563 62.34367188 -0.9375 62.8125 C-1.55238281 63.26496094 -2.16726563 63.71742188 -2.80078125 64.18359375 C-7.80733864 67.45340104 -13.89074049 66.89166551 -19.625 66.375 C-25.54615539 64.68185916 -29.25439452 61.43090822 -32.625 56.375 C-35.04908525 50.64534396 -34.98317035 45.36284591 -33.625 39.375 C-30.82137739 33.87159265 -26.57390483 29.35796828 -20.625 27.375 C-18.92483156 27.29321886 -17.22163703 27.26750499 -15.51953125 27.27734375 C-14.53662109 27.28056641 -13.55371094 27.28378906 -12.54101562 27.28710938 C-11.00477539 27.29967773 -11.00477539 27.29967773 -9.4375 27.3125 C-7.88385742 27.31926758 -7.88385742 27.31926758 -6.29882812 27.32617188 C-3.74082734 27.3379599 -1.18294267 27.35441485 1.375 27.375 C1.28739411 25.31173023 1.17920727 23.2493284 1.0625 21.1875 C1.00449219 20.03894531 0.94648437 18.89039063 0.88671875 17.70703125 C0.3400598 14.14748862 -0.42693711 12.2068293 -2.625 9.375 C-7.05980722 6.28094845 -12.45501744 6.78436401 -17.625 7.375 C-20.8321208 8.59024491 -20.8321208 8.59024491 -22.625 11.375 C-23.58546084 14.3432327 -24.18328538 17.28959043 -24.625 20.375 C-32.5 19.5 -32.5 19.5 -33.625 18.375 C-33.2921135 11.82823224 -32.00565509 7.6494565 -27.1328125 2.9296875 C-20.24394345 -3.06808406 -8.35691548 -3.86567492 0 0 Z M-23.4375 37.9375 C-25.98295344 41.23209006 -26.29233157 44.09885371 -26.05078125 48.19140625 C-25.38125129 51.6250507 -23.90859131 53.77424323 -21.625 56.375 C-16.97975009 59.30090416 -11.92965395 59.00449584 -6.625 58.375 C-2.5134703 56.3553012 -0.15767042 54.68607298 1.375 50.375 C1.61225901 47.45339922 1.56313852 44.55365575 1.5 41.625 C1.49097656 40.83222656 1.48195313 40.03945313 1.47265625 39.22265625 C1.44917012 37.27330719 1.41330137 35.32411425 1.375 33.375 C-1.35443537 33.32083259 -4.08278564 33.28124775 -6.8125 33.25 C-7.58142578 33.23324219 -8.35035156 33.21648438 -9.14257812 33.19921875 C-15.14569735 33.14768983 -18.85651183 33.76371078 -23.4375 37.9375 Z " fill="#510E0E" transform="translate(1352.625,528.625)"/>
<path d="M0 0 C1.02867188 -0.01740234 1.02867188 -0.01740234 2.078125 -0.03515625 C8.19432336 -0.00013985 12.10588814 1.74518282 16.6875 5.6875 C22.12648318 12.00848046 22.39720674 17.25145071 22.1875 25.25 C22.125625 28.59125 22.06375 31.9325 22 35.375 C10.12 35.375 -1.76 35.375 -14 35.375 C-13.99961018 47.83716103 -13.99961018 47.83716103 -8.265625 58.0234375 C-3.92255183 60.61430529 1.11855793 59.97599834 6 59.375 C9.35284114 57.56446578 10.50114725 56.32282023 12.25 53 C13.06723761 50.13966837 13.58909025 47.3198532 14 44.375 C20.875 45.25 20.875 45.25 22 46.375 C22.4798076 53.45216204 21.43304155 57.54741117 16.6875 63.0625 C11.43341844 67.5834539 6.83971517 68.86570947 0 68.75 C-1.02867188 68.76740234 -1.02867188 68.76740234 -2.078125 68.78515625 C-8.19432336 68.75013985 -12.10588814 67.00481718 -16.6875 63.0625 C-21.63483732 57.31289176 -22.45219696 52.55486707 -22.3984375 45.25 C-22.40130768 44.38487793 -22.40417786 43.51975586 -22.40713501 42.62841797 C-22.40916898 40.80630841 -22.40368593 38.98417669 -22.39111328 37.16210938 C-22.37504981 34.38361479 -22.39098436 31.60657469 -22.41015625 28.828125 C-22.4081737 27.05208014 -22.40432978 25.27603619 -22.3984375 23.5 C-22.40451019 22.67483887 -22.41058289 21.84967773 -22.4168396 20.99951172 C-22.34019604 14.66952059 -20.89531864 10.57766761 -16.6875 5.6875 C-11.43341844 1.1665461 -6.83971517 -0.11570947 0 0 Z M-12 13.375 C-14.64407601 18.66315202 -14 21.98854026 -14 28.375 C-4.76 28.375 4.48 28.375 14 28.375 C14.19367329 17.85041114 14.19367329 17.85041114 9.0625 10 C1.66553172 6.07507806 -6.6576137 6.9079008 -12 13.375 Z " fill="#510E0E" transform="translate(1548,526.625)"/>
<path d="M0 0 C1.29550781 -0.02578125 2.59101562 -0.0515625 3.92578125 -0.078125 C10.46359924 0.49215196 14.47386285 3.35307034 18.6875 8.25 C22.57943718 14.00990342 22.07224565 19.74170325 21.98046875 26.4296875 C21.97622391 27.5975882 21.97197906 28.76548889 21.96760559 29.96878052 C21.950854 33.68775786 21.91320698 37.40618727 21.875 41.125 C21.85994867 43.65103382 21.84626105 46.17707617 21.83398438 48.703125 C21.80096192 54.88560265 21.75079691 61.06776217 21.6875 67.25 C20.3675 67.25 19.0475 67.25 17.6875 67.25 C15.4375 64.75 15.4375 64.75 13.6875 62.25 C12.2953125 63.4565625 12.2953125 63.4565625 10.875 64.6875 C5.33769597 69.48649682 -1.33265374 68.72335579 -8.3125 68.25 C-14.10565542 66.28446513 -17.68528125 62.60666164 -21.125 57.625 C-23.32509715 51.37209231 -23.42390198 44.89954293 -20.625 38.8125 C-17.9496546 34.18973003 -14.21236742 31.29435185 -9.3125 29.25 C-6.74707031 29.02294922 -6.74707031 29.02294922 -3.890625 29.0546875 C-2.35341797 29.06435547 -2.35341797 29.06435547 -0.78515625 29.07421875 C0.27832031 29.09097656 1.34179688 29.10773437 2.4375 29.125 C4.05591797 29.13853516 4.05591797 29.13853516 5.70703125 29.15234375 C8.36741278 29.17588695 11.02734336 29.20877201 13.6875 29.25 C13.55437834 27.48910354 13.41357335 25.72878681 13.26953125 23.96875 C13.1919458 22.98841797 13.11436035 22.00808594 13.03442383 20.99804688 C12.48769152 16.66728061 11.12999795 13.58399146 7.921875 10.6171875 C3.8475898 8.12418082 -0.69493814 8.74302733 -5.3125 9.25 C-8.39298014 10.50733883 -9.70053798 11.36265506 -11.5625 14.0625 C-12.48840345 16.76305173 -12.92736075 19.42564549 -13.3125 22.25 C-20.1875 21.375 -20.1875 21.375 -21.3125 20.25 C-21.98942928 14.7217442 -20.85356221 11.50479573 -17.8125 7.046875 C-12.85058542 1.10291483 -7.35447774 0.0872935 0 0 Z M-12.125 40 C-14.51884378 44.53570401 -14.67424693 48.06427395 -13.1875 52.9375 C-11.0870772 56.64824695 -10.12089242 58.30694265 -6.3125 60.25 C-1.56643396 60.95657725 3.28866043 61.36915269 7.73046875 59.296875 C10.97938389 56.76191899 12.50836654 54.10898223 13.6875 50.25 C13.82460218 47.60392791 13.87812972 45.07530987 13.8125 42.4375 C13.80347656 41.74462891 13.79445313 41.05175781 13.78515625 40.33789062 C13.76176157 38.64177605 13.72589641 36.94584129 13.6875 35.25 C10.81192297 35.16861574 7.93867738 35.10932149 5.0625 35.0625 C4.25425781 35.03736328 3.44601562 35.01222656 2.61328125 34.98632812 C-3.30155382 34.91419599 -7.69254443 35.72038772 -12.125 40 Z " fill="#510E0E" transform="translate(1971.3125,526.75)"/>
<path d="M0 0 C1.29550781 -0.02578125 2.59101562 -0.0515625 3.92578125 -0.078125 C10.46359924 0.49215196 14.47386285 3.35307034 18.6875 8.25 C22.57943718 14.00990342 22.07224565 19.74170325 21.98046875 26.4296875 C21.97622391 27.5975882 21.97197906 28.76548889 21.96760559 29.96878052 C21.950854 33.68775786 21.91320698 37.40618727 21.875 41.125 C21.85994867 43.65103382 21.84626105 46.17707617 21.83398438 48.703125 C21.80096192 54.88560265 21.75079691 61.06776217 21.6875 67.25 C20.3675 67.25 19.0475 67.25 17.6875 67.25 C15.4375 64.75 15.4375 64.75 13.6875 62.25 C12.2953125 63.4565625 12.2953125 63.4565625 10.875 64.6875 C5.33769597 69.48649682 -1.33265374 68.72335579 -8.3125 68.25 C-14.10565542 66.28446513 -17.68528125 62.60666164 -21.125 57.625 C-23.32509715 51.37209231 -23.42390198 44.89954293 -20.625 38.8125 C-17.9496546 34.18973003 -14.21236742 31.29435185 -9.3125 29.25 C-6.74707031 29.02294922 -6.74707031 29.02294922 -3.890625 29.0546875 C-2.35341797 29.06435547 -2.35341797 29.06435547 -0.78515625 29.07421875 C0.27832031 29.09097656 1.34179688 29.10773437 2.4375 29.125 C4.05591797 29.13853516 4.05591797 29.13853516 5.70703125 29.15234375 C8.36741278 29.17588695 11.02734336 29.20877201 13.6875 29.25 C13.55437834 27.48910354 13.41357335 25.72878681 13.26953125 23.96875 C13.1919458 22.98841797 13.11436035 22.00808594 13.03442383 20.99804688 C12.48769152 16.66728061 11.12999795 13.58399146 7.921875 10.6171875 C3.8475898 8.12418082 -0.69493814 8.74302733 -5.3125 9.25 C-8.39298014 10.50733883 -9.70053798 11.36265506 -11.5625 14.0625 C-12.48840345 16.76305173 -12.92736075 19.42564549 -13.3125 22.25 C-20.1875 21.375 -20.1875 21.375 -21.3125 20.25 C-21.98942928 14.7217442 -20.85356221 11.50479573 -17.8125 7.046875 C-12.85058542 1.10291483 -7.35447774 0.0872935 0 0 Z M-12.125 40 C-14.51884378 44.53570401 -14.67424693 48.06427395 -13.1875 52.9375 C-11.0870772 56.64824695 -10.12089242 58.30694265 -6.3125 60.25 C-1.56643396 60.95657725 3.28866043 61.36915269 7.73046875 59.296875 C10.97938389 56.76191899 12.50836654 54.10898223 13.6875 50.25 C13.82460218 47.60392791 13.87812972 45.07530987 13.8125 42.4375 C13.80347656 41.74462891 13.79445313 41.05175781 13.78515625 40.33789062 C13.76176157 38.64177605 13.72589641 36.94584129 13.6875 35.25 C10.81192297 35.16861574 7.93867738 35.10932149 5.0625 35.0625 C4.25425781 35.03736328 3.44601562 35.01222656 2.61328125 34.98632812 C-3.30155382 34.91419599 -7.69254443 35.72038772 -12.125 40 Z " fill="#510E0E" transform="translate(795.3125,526.75)"/>
<path d="M0 0 C4.98120246 3.98249603 7.11836789 8.01601784 8.578125 14.26171875 C8.77027745 16.9123978 8.88244147 19.4543074 8.87890625 22.1015625 C8.88319138 22.82735001 8.8874765 23.55313751 8.89189148 24.30091858 C8.89759882 25.8261715 8.89816178 27.35145162 8.89379883 28.87670898 C8.89063791 31.18976963 8.91414461 33.50154997 8.93945312 35.81445312 C8.97791394 44.68781741 8.78288431 52.14674579 3.328125 59.57421875 C-2.14052932 64.91858547 -6.38044857 65.46898368 -13.859375 65.69921875 C-20.9305237 65.53866947 -25.65154021 64.63364188 -30.9375 59.90625 C-36.09617889 54.37697637 -36.73233357 47.66847945 -36.72265625 40.421875 C-36.72694138 39.69608749 -36.7312265 38.97029999 -36.73564148 38.22251892 C-36.74134882 36.697266 -36.74191178 35.17198588 -36.73754883 33.64672852 C-36.73438791 31.33366787 -36.75789461 29.02188753 -36.78320312 26.70898438 C-36.82166394 17.83562009 -36.62663431 10.37669171 -31.171875 2.94921875 C-23.39619198 -4.6497442 -9.34295645 -5.78857084 0 0 Z M-25.421875 9.26171875 C-27.98649883 12.9730626 -27.74487991 16.97006006 -27.7578125 21.31640625 C-27.7644693 22.09557404 -27.7711261 22.87474182 -27.77798462 23.67752075 C-27.78809241 25.32323859 -27.79280222 26.96899725 -27.79248047 28.61474609 C-27.79684842 31.12146198 -27.83317017 33.62640853 -27.87109375 36.1328125 C-27.87696356 37.7356711 -27.88093185 39.33853801 -27.8828125 40.94140625 C-27.89718353 41.68534637 -27.91155457 42.4292865 -27.92636108 43.19577026 C-27.88140365 48.36410888 -26.67112794 51.27641364 -23.421875 55.26171875 C-19.02224241 58.36839809 -13.57211814 57.87289087 -8.421875 57.26171875 C-4.29465144 55.23431069 -2.00311939 53.56281014 -0.421875 49.26171875 C-0.20620287 46.54207505 -0.09403159 43.92726715 -0.0859375 41.20703125 C-0.0792807 40.42786346 -0.0726239 39.64869568 -0.06576538 38.84591675 C-0.05565759 37.20019891 -0.05094778 35.55444025 -0.05126953 33.90869141 C-0.04690158 31.40197552 -0.01057983 28.89702897 0.02734375 26.390625 C0.03321356 24.7877664 0.03718185 23.18489949 0.0390625 21.58203125 C0.05343353 20.83809113 0.06780457 20.094151 0.08261108 19.32766724 C0.03765365 14.15932862 -1.17262206 11.24702386 -4.421875 7.26171875 C-10.7261108 2.81015633 -20.01297954 4.26889217 -25.421875 9.26171875 Z " fill="#510E0E" transform="translate(1207.421875,529.73828125)"/>
<path d="M0 0 C1.02867188 -0.01740234 1.02867188 -0.01740234 2.078125 -0.03515625 C8.19432336 -0.00013985 12.10588814 1.74518282 16.6875 5.6875 C21.63483732 11.43710824 22.45219696 16.19513293 22.3984375 23.5 C22.40130768 24.36512207 22.40417786 25.23024414 22.40713501 26.12158203 C22.40916898 27.94369159 22.40368593 29.76582331 22.39111328 31.58789062 C22.37504981 34.36638521 22.39098436 37.14342531 22.41015625 39.921875 C22.4081737 41.69791986 22.40432978 43.47396381 22.3984375 45.25 C22.40754654 46.4877417 22.40754654 46.4877417 22.4168396 47.75048828 C22.34019604 54.08047941 20.89531864 58.17233239 16.6875 63.0625 C11.43341844 67.5834539 6.83971517 68.86570947 0 68.75 C-1.02867188 68.76740234 -1.02867188 68.76740234 -2.078125 68.78515625 C-8.19432336 68.75013985 -12.10588814 67.00481718 -16.6875 63.0625 C-21.63483732 57.31289176 -22.45219696 52.55486707 -22.3984375 45.25 C-22.40130768 44.38487793 -22.40417786 43.51975586 -22.40713501 42.62841797 C-22.40916898 40.80630841 -22.40368593 38.98417669 -22.39111328 37.16210938 C-22.37504981 34.38361479 -22.39098436 31.60657469 -22.41015625 28.828125 C-22.4081737 27.05208014 -22.40432978 25.27603619 -22.3984375 23.5 C-22.40451019 22.67483887 -22.41058289 21.84967773 -22.4168396 20.99951172 C-22.34019604 14.66952059 -20.89531864 10.57766761 -16.6875 5.6875 C-11.43341844 1.1665461 -6.83971517 -0.11570947 0 0 Z M-12 13.375 C-14.56338924 19.61145401 -14.33720582 25.61030148 -14.31567383 32.26049805 C-14.31251351 34.30376555 -14.33601378 36.34558278 -14.36132812 38.38867188 C-14.36535342 46.53184662 -14.2429533 52.29515553 -9.0625 58.8125 C-4.16606456 61.31068135 0.62525771 61.21866726 6 60.375 C9.43269246 58.77351441 11.3990694 56.55647085 13.12963867 53.15405273 C14.7949602 47.8367021 14.33225352 42.18392534 14.31567383 36.65551758 C14.31251442 34.44757685 14.33599663 32.24097846 14.36132812 30.03320312 C14.3636016 28.61718918 14.36430439 27.20117166 14.36328125 25.78515625 C14.36626221 24.50777588 14.36924316 23.23039551 14.37231445 21.91430664 C13.85870298 17.03179807 12.13790925 13.7698565 9.0625 10 C1.66553172 6.07507806 -6.6576137 6.9079008 -12 13.375 Z " fill="#510E0E" transform="translate(1107,526.625)"/>
<path d="M0 0 C2.64 0 5.28 0 8 0 C8.00586624 0.61308014 8.01173248 1.22616028 8.01777649 1.8578186 C8.08180457 8.24975204 8.16624878 14.64118638 8.26245117 21.03271484 C8.29566646 23.41676241 8.32370892 25.80088797 8.34643555 28.18505859 C8.38004318 31.61589739 8.43236407 35.04602363 8.48828125 38.4765625 C8.49467117 39.53928375 8.5010611 40.602005 8.50764465 41.69692993 C8.61611314 47.17995547 8.84939075 51.29545936 12 56 C16.31424971 59.16499926 21.90216329 58.49919469 27 58 C30.74030185 56.39701349 31.73158465 55.40262302 34 52 C34.3276397 49.59700223 34.3276397 49.59700223 34.31884766 46.88598633 C34.33871735 45.84513382 34.35858704 44.80428131 34.37905884 43.73188782 C34.39061005 42.60993515 34.40216125 41.48798248 34.4140625 40.33203125 C34.43342865 39.18208176 34.4527948 38.03213226 34.4727478 36.84733582 C34.53259761 33.16913301 34.57895106 29.490899 34.625 25.8125 C34.66317476 23.32094978 34.70222619 20.82941283 34.7421875 18.33789062 C34.83830362 12.22537806 34.92333538 6.11278579 35 0 C37.97 0 40.94 0 44 0 C44 21.78 44 43.56 44 66 C42.68 66 41.36 66 40 66 C37.75 63.5 37.75 63.5 36 61 C34.88625 61.928125 34.88625 61.928125 33.75 62.875 C27.44389413 67.74789999 21.83536247 67.75826088 14 67 C7.7430783 65.18284064 4.23353773 61.7344104 0.91262817 56.1819458 C-0.20508471 53.50967575 -0.24057557 51.48317159 -0.22705078 48.58886719 C-0.22689972 47.50804871 -0.22674866 46.42723022 -0.22659302 45.31365967 C-0.21627045 44.15312073 -0.20594788 42.99258179 -0.1953125 41.796875 C-0.1924826 40.60394836 -0.18965271 39.41102173 -0.18673706 38.1819458 C-0.17554053 34.37119524 -0.15043653 30.56067955 -0.125 26.75 C-0.11496954 24.16667006 -0.1058438 21.58333644 -0.09765625 19 C-0.07560289 12.66658651 -0.04213035 6.33331003 0 0 Z " fill="#510E0E" transform="translate(1467,528)"/>
<path d="M0 0 C5.82937247 3.10813886 9.70594884 8.11391782 11.765625 14.31640625 C12.00613403 16.89179993 12.00613403 16.89179993 11.99267578 19.6574707 C11.99252472 20.69817215 11.99237366 21.7388736 11.99221802 22.81111145 C11.98189545 23.92274155 11.97157288 25.03437164 11.9609375 26.1796875 C11.9581076 27.3268071 11.95527771 28.4739267 11.95236206 29.6558075 C11.94118197 33.31361393 11.91608095 36.97117403 11.890625 40.62890625 C11.88059241 43.11132458 11.87146705 45.59374676 11.86328125 48.07617188 C11.84124971 54.15633381 11.80779348 60.23635243 11.765625 66.31640625 C8.795625 66.31640625 5.825625 66.31640625 2.765625 66.31640625 C2.76015656 65.3558709 2.76015656 65.3558709 2.75457764 64.37593079 C2.71275302 57.70834112 2.64340728 51.04143983 2.55810547 44.37426758 C2.52988748 41.8863819 2.50867713 39.39840643 2.49462891 36.91040039 C2.47321179 33.33302818 2.4265648 29.75673652 2.375 26.1796875 C2.37377136 25.0680574 2.37254272 23.95642731 2.37127686 22.81111145 C2.27590048 16.68702871 2.27590048 16.68702871 -0.08496094 11.13745117 C-4.69379912 7.23271197 -10.49860297 7.85452124 -16.234375 8.31640625 C-19.62681011 9.63184027 -20.7696246 10.34950827 -22.33554077 13.60734558 C-23.25884279 16.39015147 -23.50884482 18.55233629 -23.55322266 21.47387695 C-23.57309235 22.4745369 -23.59296204 23.47519684 -23.61343384 24.50617981 C-23.62498505 25.57406235 -23.63653625 26.64194489 -23.6484375 27.7421875 C-23.66780365 28.84491501 -23.6871698 29.94764252 -23.7071228 31.08378601 C-23.76680423 34.59874791 -23.81325875 38.11374276 -23.859375 41.62890625 C-23.89756526 44.01498808 -23.9366176 46.40105628 -23.9765625 48.78710938 C-24.07249643 54.63008715 -24.15757747 60.47314731 -24.234375 66.31640625 C-26.874375 66.31640625 -29.514375 66.31640625 -32.234375 66.31640625 C-32.234375 44.53640625 -32.234375 22.75640625 -32.234375 0.31640625 C-30.914375 0.64640625 -29.594375 0.97640625 -28.234375 1.31640625 C-26.984375 3.87890625 -26.984375 3.87890625 -26.234375 6.31640625 C-25.574375 6.31640625 -24.914375 6.31640625 -24.234375 6.31640625 C-24.234375 5.65640625 -24.234375 4.99640625 -24.234375 4.31640625 C-17.0244754 -0.97085346 -8.77224199 -2.6838153 0 0 Z " fill="#510E0E" transform="translate(1058.234375,527.68359375)"/>
<path d="M0 0 C4.91058711 3.92603871 7.32779442 8.01006587 8.578125 14.26171875 C8.703125 17.19921875 8.703125 17.19921875 8.578125 19.26171875 C5.608125 19.92171875 2.638125 20.58171875 -0.421875 21.26171875 C-0.51984375 20.58625 -0.6178125 19.91078125 -0.71875 19.21484375 C-1.78295638 12.28314456 -1.78295638 12.28314456 -6.421875 7.26171875 C-10.34473946 5.30028652 -15.13516844 5.91481764 -19.421875 6.26171875 C-22.37483862 7.46701002 -23.7411037 8.27124551 -25.52416992 10.86547852 C-26.8190195 14.32181482 -26.72707546 17.70952141 -26.72265625 21.3515625 C-26.72694138 22.13310196 -26.7312265 22.91464142 -26.73564148 23.71986389 C-26.74137415 25.369792 -26.74189287 27.01974538 -26.73754883 28.66967773 C-26.73439017 31.18712706 -26.75785536 33.70339909 -26.78320312 36.22070312 C-26.78547645 37.82682144 -26.78617946 39.4329429 -26.78515625 41.0390625 C-26.794366 41.78816391 -26.80357574 42.53726532 -26.81306458 43.30906677 C-26.77345288 47.80811647 -26.18472946 50.67644501 -23.421875 54.26171875 C-18.99614791 57.35879204 -13.58832408 56.75996681 -8.421875 56.26171875 C-5.4065645 55.03097977 -4.07910052 54.1489732 -2.171875 51.57421875 C-1.06769218 48.16965507 -0.77792107 44.82217942 -0.421875 41.26171875 C2.548125 41.92171875 5.518125 42.58171875 8.578125 43.26171875 C8.10099506 51.01508022 6.97536796 56.03869338 1.140625 61.57421875 C-5.91274535 66.21912118 -13.27070781 65.9546979 -21.421875 65.26171875 C-27.38612915 63.67365713 -31.05059416 60.31864001 -34.421875 55.26171875 C-36.15440725 50.27067417 -36.72965971 45.66622904 -36.72265625 40.421875 C-36.72694138 39.69608749 -36.7312265 38.97029999 -36.73564148 38.22251892 C-36.74134882 36.697266 -36.74191178 35.17198588 -36.73754883 33.64672852 C-36.73438791 31.33366787 -36.75789461 29.02188753 -36.78320312 26.70898438 C-36.82166394 17.83562009 -36.62663431 10.37669171 -31.171875 2.94921875 C-23.39619198 -4.6497442 -9.34295645 -5.78857084 0 0 Z " fill="#510E0E" transform="translate(1002.421875,529.73828125)"/>
<path d="M0 0 C2.97 0 5.94 0 9 0 C9 27.39 9 54.78 9 83 C20.55 83 32.1 83 44 83 C44 85.97 44 88.94 44 92 C29.48 92 14.96 92 0 92 C0 61.64 0 31.28 0 0 Z " fill="#510E0E" transform="translate(719,502)"/>
<path d="M0 0 C0 5.61 0 11.22 0 17 C5.28 17 10.56 17 16 17 C16 19.64 16 22.28 16 25 C10.72 25 5.44 25 0 25 C0.04412016 31.19355797 0.11392 37.38609333 0.20751953 43.57910156 C0.23574279 45.6857896 0.25695056 47.7925838 0.27099609 49.89941406 C0.29240661 52.9282878 0.3390476 55.95588331 0.390625 58.984375 C0.39185364 59.92617615 0.39308228 60.86797729 0.39434814 61.83831787 C0.45482454 67.0740772 0.45482454 67.0740772 2.91308594 71.56347656 C5.94247262 73.64874928 7.99639569 74.19963957 11.625 74.5625 C12.44226562 74.64628906 13.25953125 74.73007812 14.1015625 74.81640625 C14.72804688 74.87699219 15.35453125 74.93757812 16 75 C16 77.64 16 80.28 16 83 C8.75807155 83.47924527 3.02164699 83.37032063 -3 79 C-7.52002035 74.47997965 -9.08536157 69.68268843 -9.22705078 63.37158203 C-9.22673688 61.58362758 -9.21560164 59.79565186 -9.1953125 58.0078125 C-9.1924826 57.06187225 -9.18965271 56.11593201 -9.18673706 55.1413269 C-9.17558932 52.13575306 -9.15049465 49.13048298 -9.125 46.125 C-9.11496321 44.08073349 -9.10583859 42.03646228 -9.09765625 39.9921875 C-9.07566767 34.99467556 -9.04117509 29.9973892 -9 25 C-12.63 25 -16.26 25 -20 25 C-20 22.36 -20 19.72 -20 17 C-16.37 17 -12.74 17 -9 17 C-9 12.05 -9 7.1 -9 2 C-2 0 -2 0 0 0 Z " fill="#510E0E" transform="translate(1630,511)"/>
<path d="M0 0 C2.64 0 5.28 0 8 0 C12.01841248 9.54757575 15.33934113 19.34939227 18.75 29.125 C19.35787027 30.86205009 19.96594154 32.59902987 20.57421875 34.3359375 C22.0517983 38.55648426 23.52665241 42.77797414 25 47 C25.27521988 46.20526276 25.27521988 46.20526276 25.55599976 45.39447021 C27.46700628 39.87789 29.38181338 34.36263969 31.29882812 28.84814453 C32.01367082 26.7902149 32.72754531 24.73194868 33.44042969 22.67333984 C34.46555002 19.71362614 35.49415144 16.75514218 36.5234375 13.796875 C36.84122162 12.87694763 37.15900574 11.95702026 37.48641968 11.00921631 C37.7865799 10.1486261 38.08674011 9.28803589 38.39599609 8.40136719 C38.78904434 7.26885529 38.78904434 7.26885529 39.19003296 6.11346436 C40.00168799 3.9955955 40.95163425 2.00982699 42 0 C44.64 0 47.28 0 50 0 C48.53042307 7.45075501 46.25447186 14.43439544 43.71875 21.5859375 C43.30459839 22.76467438 42.89044678 23.94341125 42.46374512 25.15786743 C41.37022773 28.26512054 40.27180362 31.37058465 39.17156982 34.47546387 C38.27387741 37.01458803 37.38319486 39.55614724 36.49251556 42.09773827 C35.42631938 45.13696269 34.35355411 48.17386374 33.28125 51.2109375 C32.88224487 52.34840424 32.48323975 53.48587097 32.07214355 54.6578064 C31.69835571 55.70965118 31.32456787 56.76149597 30.93945312 57.84521484 C30.6123938 58.77071136 30.28533447 59.69620789 29.94836426 60.64974976 C29 63 29 63 27 66 C24.73608398 66.08398438 24.73608398 66.08398438 22 65 C20.25268783 62.07401679 19.2865098 58.88186252 18.22265625 55.65625 C17.88882431 54.69916138 17.55499237 53.74207275 17.21104431 52.75598145 C16.14202242 49.67698861 15.10191092 46.5890994 14.0625 43.5 C13.36713956 41.47981197 12.66989366 39.46027188 11.97070312 37.44140625 C10.60688209 33.49609695 9.25583801 29.54677358 7.91455078 25.59375 C6.69156834 21.99960352 5.44330111 18.41668337 4.15966797 14.84375 C3.8774791 14.05746216 3.59529022 13.27117432 3.30455017 12.46105957 C2.78136706 11.00997517 2.25440175 9.56024651 1.72291565 8.11218262 C0.69434911 5.25618179 0 3.06333777 0 0 Z " fill="#510E0E" transform="translate(1890,528)"/>
<path d="M0 0 C0 5.61 0 11.22 0 17 C5.61 17 11.22 17 17 17 C17 19.64 17 22.28 17 25 C11.39 25 5.78 25 0 25 C0.04417155 31.03284363 0.11402568 37.06464256 0.20751953 43.09692383 C0.23571564 45.14827146 0.25693693 47.19972747 0.27099609 49.2512207 C0.29244424 52.20320054 0.33910448 55.1538793 0.390625 58.10546875 C0.39185364 59.02023483 0.39308228 59.93500092 0.39434814 60.87748718 C0.49006976 65.05474839 0.65010187 67.4210239 2.84960938 71.06054688 C5.61257053 73.55248187 7.58401265 73.87417543 11.25 74.3125 C12.32765625 74.45300781 13.4053125 74.59351563 14.515625 74.73828125 C15.33546875 74.82464844 16.1553125 74.91101563 17 75 C17 77.64 17 80.28 17 83 C9.50442833 83.4497343 3.13244678 83.75080154 -3 79 C-8.15570121 73.16230261 -8.69000244 67.69861507 -8.48828125 60.15625 C-8.47766914 58.64170227 -8.47766914 58.64170227 -8.46684265 57.09655762 C-8.43903256 53.89692579 -8.37631815 50.69909571 -8.3125 47.5 C-8.28739988 45.32033792 -8.26458973 43.14064818 -8.24414062 40.9609375 C-8.18924956 35.63993925 -8.10306921 30.32027425 -8 25 C-11.96 25 -15.92 25 -20 25 C-20 22.36 -20 19.72 -20 17 C-16.04 17 -12.08 17 -8 17 C-8 11.72 -8 6.44 -8 1 C-2 0 -2 0 0 0 Z " fill="#510E0E" transform="translate(877,511)"/>
<path d="M0 0 C2.97 0 5.94 0 9 0 C9 30.36 9 60.72 9 92 C6.03 92 3.06 92 0 92 C0 61.64 0 31.28 0 0 Z " fill="#510E0E" transform="translate(1811,502)"/>
<path d="M0 0 C2.64 0 5.28 0 8 0 C8 30.36 8 60.72 8 92 C5.36 92 2.72 92 0 92 C0 61.64 0 31.28 0 0 Z " fill="#510E0E" transform="translate(1147,502)"/>
<path d="M0 0 C2.97 0 5.94 0 9 0 C9 21.78 9 43.56 9 66 C6.03 66 3.06 66 0 66 C0 44.22 0 22.44 0 0 Z " fill="#510E0E" transform="translate(1292,528)"/>
<path d="M0 0 C1.26457031 0.05800781 2.52914063 0.11601562 3.83203125 0.17578125 C5.10433594 0.22089844 6.37664062 0.26601563 7.6875 0.3125 C8.66332031 0.37050781 9.63914062 0.42851562 10.64453125 0.48828125 C10.64453125 2.48828125 10.64453125 2.48828125 9.17578125 3.96875 C7.7599726 5.15857381 6.34323369 6.34729118 4.92578125 7.53515625 C2.6375284 9.44590699 2.6375284 9.44590699 0.61328125 11.50390625 C-2.77757669 14.81402948 -4.9635961 16.92578125 -9.85546875 16.92578125 C-11.01046875 16.78140625 -12.16546875 16.63703125 -13.35546875 16.48828125 C-12.88496094 15.75222656 -12.41445312 15.01617188 -11.9296875 14.2578125 C-11.30707031 13.28199219 -10.68445312 12.30617188 -10.04296875 11.30078125 C-9.42808594 10.33785156 -8.81320312 9.37492187 -8.1796875 8.3828125 C-6.31254295 5.56839564 -6.31254295 5.56839564 -5.07421875 2.64453125 C-3.35546875 0.48828125 -3.35546875 0.48828125 0 0 Z " fill="#510E0E" transform="translate(1300.35546875,501.51171875)"/>
</svg>
